<?xml version="1.0" encoding="utf-8" standalone="no"?>
<!DOCTYPE svg PUBLIC "-//W3C//DTD SVG 1.1//EN"
  "http://www.w3.org/Graphics/SVG/1.1/DTD/svg11.dtd">
<svg xmlns:xlink="http://www.w3.org/1999/xlink" width="944.39952pt" height="584.39952pt" viewBox="0 0 944.39952 584.39952" xmlns="http://www.w3.org/2000/svg" version="1.1">
 <metadata>
  <rdf:RDF xmlns:dc="http://purl.org/dc/elements/1.1/" xmlns:cc="http://creativecommons.org/ns#" xmlns:rdf="http://www.w3.org/1999/02/22-rdf-syntax-ns#">
   <cc:Work>
    <dc:type rdf:resource="http://purl.org/dc/dcmitype/StillImage"/>
    <dc:date>2026-09-15T11:59:03.022705</dc:date>
    <dc:format>image/svg+xml</dc:format>
    <dc:creator>
     <cc:Agent>
      <dc:title>Matplotlib v3.8.0, https://matplotlib.org/</dc:title>
     </cc:Agent>
    </dc:creator>
   </cc:Work>
  </rdf:RDF>
 </metadata>
 <defs>
  <style type="text/css">*{stroke-linejoin: round; stroke-linecap: butt}</style>
 </defs>
 <g id="figure_1">
  <g id="patch_1">
   <path d="M 0 584.39952 
L 944.39952 584.39952 
L 944.39952 0 
L 0 0 
z
" style="fill: #ffffff"/>
  </g>
  <g id="axes_1">
   <g id="patch_2">
    <path d="M 123.921875 276.021395 
L 467.51976 276.021395 
L 467.51976 31.077969 
L 123.921875 31.077969 
z
" style="fill: #ffffff"/>
   </g>
   <g id="matplotlib.axis_1">
    <g id="xtick_1">
     <g id="line2d_1">
      <path d="M 123.921875 276.021395 
L 123.921875 31.077969 
" clip-path="url(#pc8cbf12369)" style="fill: none; stroke: #edf1f5; stroke-width: 0.8; stroke-linecap: square"/>
     </g>
     <g id="line2d_2"/>
     <g id="text_1">
      <!-- 0 -->
      <g transform="translate(120.740625 287.119832) scale(0.1 -0.1)">
       <defs>
        <path id="DejaVuSans-30" d="M 2034 4250 
Q 1547 4250 1301 3770 
Q 1056 3291 1056 2328 
Q 1056 1369 1301 889 
Q 1547 409 2034 409 
Q 2525 409 2770 889 
Q 3016 1369 3016 2328 
Q 3016 3291 2770 3770 
Q 2525 4250 2034 4250 
z
M 2034 4750 
Q 2819 4750 3233 4129 
Q 3647 3509 3647 2328 
Q 3647 1150 3233 529 
Q 2819 -91 2034 -91 
Q 1250 -91 836 529 
Q 422 1150 422 2328 
Q 422 3509 836 4129 
Q 1250 4750 2034 4750 
z
" transform="scale(0.015625)"/>
       </defs>
       <use xlink:href="#DejaVuSans-30"/>
      </g>
     </g>
    </g>
    <g id="xtick_2">
     <g id="line2d_3">
      <path d="M 193.369261 276.021395 
L 193.369261 31.077969 
" clip-path="url(#pc8cbf12369)" style="fill: none; stroke: #edf1f5; stroke-width: 0.8; stroke-linecap: square"/>
     </g>
     <g id="line2d_4"/>
     <g id="text_2">
      <!-- 10 -->
      <g transform="translate(187.006761 287.119832) scale(0.1 -0.1)">
       <defs>
        <path id="DejaVuSans-31" d="M 794 531 
L 1825 531 
L 1825 4091 
L 703 3866 
L 703 4441 
L 1819 4666 
L 2450 4666 
L 2450 531 
L 3481 531 
L 3481 0 
L 794 0 
L 794 531 
z
" transform="scale(0.015625)"/>
       </defs>
       <use xlink:href="#DejaVuSans-31"/>
       <use xlink:href="#DejaVuSans-30" x="63.623047"/>
      </g>
     </g>
    </g>
    <g id="xtick_3">
     <g id="line2d_5">
      <path d="M 262.816646 276.021395 
L 262.816646 31.077969 
" clip-path="url(#pc8cbf12369)" style="fill: none; stroke: #edf1f5; stroke-width: 0.8; stroke-linecap: square"/>
     </g>
     <g id="line2d_6"/>
     <g id="text_3">
      <!-- 20 -->
      <g transform="translate(256.454146 287.119832) scale(0.1 -0.1)">
       <defs>
        <path id="DejaVuSans-32" d="M 1228 531 
L 3431 531 
L 3431 0 
L 469 0 
L 469 531 
Q 828 903 1448 1529 
Q 2069 2156 2228 2338 
Q 2531 2678 2651 2914 
Q 2772 3150 2772 3378 
Q 2772 3750 2511 3984 
Q 2250 4219 1831 4219 
Q 1534 4219 1204 4116 
Q 875 4013 500 3803 
L 500 4441 
Q 881 4594 1212 4672 
Q 1544 4750 1819 4750 
Q 2544 4750 2975 4387 
Q 3406 4025 3406 3419 
Q 3406 3131 3298 2873 
Q 3191 2616 2906 2266 
Q 2828 2175 2409 1742 
Q 1991 1309 1228 531 
z
" transform="scale(0.015625)"/>
       </defs>
       <use xlink:href="#DejaVuSans-32"/>
       <use xlink:href="#DejaVuSans-30" x="63.623047"/>
      </g>
     </g>
    </g>
    <g id="xtick_4">
     <g id="line2d_7">
      <path d="M 332.264032 276.021395 
L 332.264032 31.077969 
" clip-path="url(#pc8cbf12369)" style="fill: none; stroke: #edf1f5; stroke-width: 0.8; stroke-linecap: square"/>
     </g>
     <g id="line2d_8"/>
     <g id="text_4">
      <!-- 30 -->
      <g transform="translate(325.901532 287.119832) scale(0.1 -0.1)">
       <defs>
        <path id="DejaVuSans-33" d="M 2597 2516 
Q 3050 2419 3304 2112 
Q 3559 1806 3559 1356 
Q 3559 666 3084 287 
Q 2609 -91 1734 -91 
Q 1441 -91 1130 -33 
Q 819 25 488 141 
L 488 750 
Q 750 597 1062 519 
Q 1375 441 1716 441 
Q 2309 441 2620 675 
Q 2931 909 2931 1356 
Q 2931 1769 2642 2001 
Q 2353 2234 1838 2234 
L 1294 2234 
L 1294 2753 
L 1863 2753 
Q 2328 2753 2575 2939 
Q 2822 3125 2822 3475 
Q 2822 3834 2567 4026 
Q 2313 4219 1838 4219 
Q 1578 4219 1281 4162 
Q 984 4106 628 3988 
L 628 4550 
Q 988 4650 1302 4700 
Q 1616 4750 1894 4750 
Q 2613 4750 3031 4423 
Q 3450 4097 3450 3541 
Q 3450 3153 3228 2886 
Q 3006 2619 2597 2516 
z
" transform="scale(0.015625)"/>
       </defs>
       <use xlink:href="#DejaVuSans-33"/>
       <use xlink:href="#DejaVuSans-30" x="63.623047"/>
      </g>
     </g>
    </g>
    <g id="xtick_5">
     <g id="line2d_9">
      <path d="M 401.711417 276.021395 
L 401.711417 31.077969 
" clip-path="url(#pc8cbf12369)" style="fill: none; stroke: #edf1f5; stroke-width: 0.8; stroke-linecap: square"/>
     </g>
     <g id="line2d_10"/>
     <g id="text_5">
      <!-- 40 -->
      <g transform="translate(395.348917 287.119832) scale(0.1 -0.1)">
       <defs>
        <path id="DejaVuSans-34" d="M 2419 4116 
L 825 1625 
L 2419 1625 
L 2419 4116 
z
M 2253 4666 
L 3047 4666 
L 3047 1625 
L 3713 1625 
L 3713 1100 
L 3047 1100 
L 3047 0 
L 2419 0 
L 2419 1100 
L 313 1100 
L 313 1709 
L 2253 4666 
z
" transform="scale(0.015625)"/>
       </defs>
       <use xlink:href="#DejaVuSans-34"/>
       <use xlink:href="#DejaVuSans-30" x="63.623047"/>
      </g>
     </g>
    </g>
   </g>
   <g id="matplotlib.axis_2">
    <g id="ytick_1">
     <g id="line2d_11"/>
     <g id="text_6">
      <!-- Teleoperation -->
      <g transform="translate(52.915625 55.82496) scale(0.1 -0.1)">
       <defs>
        <path id="DejaVuSans-54" d="M -19 4666 
L 3928 4666 
L 3928 4134 
L 2272 4134 
L 2272 0 
L 1638 0 
L 1638 4134 
L -19 4134 
L -19 4666 
z
" transform="scale(0.015625)"/>
        <path id="DejaVuSans-65" d="M 3597 1894 
L 3597 1613 
L 953 1613 
Q 991 1019 1311 708 
Q 1631 397 2203 397 
Q 2534 397 2845 478 
Q 3156 559 3463 722 
L 3463 178 
Q 3153 47 2828 -22 
Q 2503 -91 2169 -91 
Q 1331 -91 842 396 
Q 353 884 353 1716 
Q 353 2575 817 3079 
Q 1281 3584 2069 3584 
Q 2775 3584 3186 3129 
Q 3597 2675 3597 1894 
z
M 3022 2063 
Q 3016 2534 2758 2815 
Q 2500 3097 2075 3097 
Q 1594 3097 1305 2825 
Q 1016 2553 972 2059 
L 3022 2063 
z
" transform="scale(0.015625)"/>
        <path id="DejaVuSans-6c" d="M 603 4863 
L 1178 4863 
L 1178 0 
L 603 0 
L 603 4863 
z
" transform="scale(0.015625)"/>
        <path id="DejaVuSans-6f" d="M 1959 3097 
Q 1497 3097 1228 2736 
Q 959 2375 959 1747 
Q 959 1119 1226 758 
Q 1494 397 1959 397 
Q 2419 397 2687 759 
Q 2956 1122 2956 1747 
Q 2956 2369 2687 2733 
Q 2419 3097 1959 3097 
z
M 1959 3584 
Q 2709 3584 3137 3096 
Q 3566 2609 3566 1747 
Q 3566 888 3137 398 
Q 2709 -91 1959 -91 
Q 1206 -91 779 398 
Q 353 888 353 1747 
Q 353 2609 779 3096 
Q 1206 3584 1959 3584 
z
" transform="scale(0.015625)"/>
        <path id="DejaVuSans-70" d="M 1159 525 
L 1159 -1331 
L 581 -1331 
L 581 3500 
L 1159 3500 
L 1159 2969 
Q 1341 3281 1617 3432 
Q 1894 3584 2278 3584 
Q 2916 3584 3314 3078 
Q 3713 2572 3713 1747 
Q 3713 922 3314 415 
Q 2916 -91 2278 -91 
Q 1894 -91 1617 61 
Q 1341 213 1159 525 
z
M 3116 1747 
Q 3116 2381 2855 2742 
Q 2594 3103 2138 3103 
Q 1681 3103 1420 2742 
Q 1159 2381 1159 1747 
Q 1159 1113 1420 752 
Q 1681 391 2138 391 
Q 2594 391 2855 752 
Q 3116 1113 3116 1747 
z
" transform="scale(0.015625)"/>
        <path id="DejaVuSans-72" d="M 2631 2963 
Q 2534 3019 2420 3045 
Q 2306 3072 2169 3072 
Q 1681 3072 1420 2755 
Q 1159 2438 1159 1844 
L 1159 0 
L 581 0 
L 581 3500 
L 1159 3500 
L 1159 2956 
Q 1341 3275 1631 3429 
Q 1922 3584 2338 3584 
Q 2397 3584 2469 3576 
Q 2541 3569 2628 3553 
L 2631 2963 
z
" transform="scale(0.015625)"/>
        <path id="DejaVuSans-61" d="M 2194 1759 
Q 1497 1759 1228 1600 
Q 959 1441 959 1056 
Q 959 750 1161 570 
Q 1363 391 1709 391 
Q 2188 391 2477 730 
Q 2766 1069 2766 1631 
L 2766 1759 
L 2194 1759 
z
M 3341 1997 
L 3341 0 
L 2766 0 
L 2766 531 
Q 2569 213 2275 61 
Q 1981 -91 1556 -91 
Q 1019 -91 701 211 
Q 384 513 384 1019 
Q 384 1609 779 1909 
Q 1175 2209 1959 2209 
L 2766 2209 
L 2766 2266 
Q 2766 2663 2505 2880 
Q 2244 3097 1772 3097 
Q 1472 3097 1187 3025 
Q 903 2953 641 2809 
L 641 3341 
Q 956 3463 1253 3523 
Q 1550 3584 1831 3584 
Q 2591 3584 2966 3190 
Q 3341 2797 3341 1997 
z
" transform="scale(0.015625)"/>
        <path id="DejaVuSans-74" d="M 1172 4494 
L 1172 3500 
L 2356 3500 
L 2356 3053 
L 1172 3053 
L 1172 1153 
Q 1172 725 1289 603 
Q 1406 481 1766 481 
L 2356 481 
L 2356 0 
L 1766 0 
Q 1100 0 847 248 
Q 594 497 594 1153 
L 594 3053 
L 172 3053 
L 172 3500 
L 594 3500 
L 594 4494 
L 1172 4494 
z
" transform="scale(0.015625)"/>
        <path id="DejaVuSans-69" d="M 603 3500 
L 1178 3500 
L 1178 0 
L 603 0 
L 603 3500 
z
M 603 4863 
L 1178 4863 
L 1178 4134 
L 603 4134 
L 603 4863 
z
" transform="scale(0.015625)"/>
        <path id="DejaVuSans-6e" d="M 3513 2113 
L 3513 0 
L 2938 0 
L 2938 2094 
Q 2938 2591 2744 2837 
Q 2550 3084 2163 3084 
Q 1697 3084 1428 2787 
Q 1159 2491 1159 1978 
L 1159 0 
L 581 0 
L 581 3500 
L 1159 3500 
L 1159 2956 
Q 1366 3272 1645 3428 
Q 1925 3584 2291 3584 
Q 2894 3584 3203 3211 
Q 3513 2838 3513 2113 
z
" transform="scale(0.015625)"/>
       </defs>
       <use xlink:href="#DejaVuSans-54"/>
       <use xlink:href="#DejaVuSans-65" x="44.083984"/>
       <use xlink:href="#DejaVuSans-6c" x="105.607422"/>
       <use xlink:href="#DejaVuSans-65" x="133.390625"/>
       <use xlink:href="#DejaVuSans-6f" x="194.914062"/>
       <use xlink:href="#DejaVuSans-70" x="256.095703"/>
       <use xlink:href="#DejaVuSans-65" x="319.572266"/>
       <use xlink:href="#DejaVuSans-72" x="381.095703"/>
       <use xlink:href="#DejaVuSans-61" x="422.208984"/>
       <use xlink:href="#DejaVuSans-74" x="483.488281"/>
       <use xlink:href="#DejaVuSans-69" x="522.697266"/>
       <use xlink:href="#DejaVuSans-6f" x="550.480469"/>
       <use xlink:href="#DejaVuSans-6e" x="611.662109"/>
      </g>
     </g>
    </g>
    <g id="ytick_2">
     <g id="line2d_12"/>
     <g id="text_7">
      <!-- Pos. belief -->
      <g transform="translate(69.339063 89.666274) scale(0.1 -0.1)">
       <defs>
        <path id="DejaVuSans-50" d="M 1259 4147 
L 1259 2394 
L 2053 2394 
Q 2494 2394 2734 2622 
Q 2975 2850 2975 3272 
Q 2975 3691 2734 3919 
Q 2494 4147 2053 4147 
L 1259 4147 
z
M 628 4666 
L 2053 4666 
Q 2838 4666 3239 4311 
Q 3641 3956 3641 3272 
Q 3641 2581 3239 2228 
Q 2838 1875 2053 1875 
L 1259 1875 
L 1259 0 
L 628 0 
L 628 4666 
z
" transform="scale(0.015625)"/>
        <path id="DejaVuSans-73" d="M 2834 3397 
L 2834 2853 
Q 2591 2978 2328 3040 
Q 2066 3103 1784 3103 
Q 1356 3103 1142 2972 
Q 928 2841 928 2578 
Q 928 2378 1081 2264 
Q 1234 2150 1697 2047 
L 1894 2003 
Q 2506 1872 2764 1633 
Q 3022 1394 3022 966 
Q 3022 478 2636 193 
Q 2250 -91 1575 -91 
Q 1294 -91 989 -36 
Q 684 19 347 128 
L 347 722 
Q 666 556 975 473 
Q 1284 391 1588 391 
Q 1994 391 2212 530 
Q 2431 669 2431 922 
Q 2431 1156 2273 1281 
Q 2116 1406 1581 1522 
L 1381 1569 
Q 847 1681 609 1914 
Q 372 2147 372 2553 
Q 372 3047 722 3315 
Q 1072 3584 1716 3584 
Q 2034 3584 2315 3537 
Q 2597 3491 2834 3397 
z
" transform="scale(0.015625)"/>
        <path id="DejaVuSans-2e" d="M 684 794 
L 1344 794 
L 1344 0 
L 684 0 
L 684 794 
z
" transform="scale(0.015625)"/>
        <path id="DejaVuSans-20" transform="scale(0.015625)"/>
        <path id="DejaVuSans-62" d="M 3116 1747 
Q 3116 2381 2855 2742 
Q 2594 3103 2138 3103 
Q 1681 3103 1420 2742 
Q 1159 2381 1159 1747 
Q 1159 1113 1420 752 
Q 1681 391 2138 391 
Q 2594 391 2855 752 
Q 3116 1113 3116 1747 
z
M 1159 2969 
Q 1341 3281 1617 3432 
Q 1894 3584 2278 3584 
Q 2916 3584 3314 3078 
Q 3713 2572 3713 1747 
Q 3713 922 3314 415 
Q 2916 -91 2278 -91 
Q 1894 -91 1617 61 
Q 1341 213 1159 525 
L 1159 0 
L 581 0 
L 581 4863 
L 1159 4863 
L 1159 2969 
z
" transform="scale(0.015625)"/>
        <path id="DejaVuSans-66" d="M 2375 4863 
L 2375 4384 
L 1825 4384 
Q 1516 4384 1395 4259 
Q 1275 4134 1275 3809 
L 1275 3500 
L 2222 3500 
L 2222 3053 
L 1275 3053 
L 1275 0 
L 697 0 
L 697 3053 
L 147 3053 
L 147 3500 
L 697 3500 
L 697 3744 
Q 697 4328 969 4595 
Q 1241 4863 1831 4863 
L 2375 4863 
z
" transform="scale(0.015625)"/>
       </defs>
       <use xlink:href="#DejaVuSans-50"/>
       <use xlink:href="#DejaVuSans-6f" x="56.677734"/>
       <use xlink:href="#DejaVuSans-73" x="117.859375"/>
       <use xlink:href="#DejaVuSans-2e" x="169.958984"/>
       <use xlink:href="#DejaVuSans-20" x="201.746094"/>
       <use xlink:href="#DejaVuSans-62" x="233.533203"/>
       <use xlink:href="#DejaVuSans-65" x="297.009766"/>
       <use xlink:href="#DejaVuSans-6c" x="358.533203"/>
       <use xlink:href="#DejaVuSans-69" x="386.316406"/>
       <use xlink:href="#DejaVuSans-65" x="414.099609"/>
       <use xlink:href="#DejaVuSans-66" x="475.623047"/>
      </g>
     </g>
    </g>
    <g id="ytick_3">
     <g id="line2d_13"/>
     <g id="text_8">
      <!-- Ori. belief -->
      <g transform="translate(71.573438 123.507587) scale(0.1 -0.1)">
       <defs>
        <path id="DejaVuSans-4f" d="M 2522 4238 
Q 1834 4238 1429 3725 
Q 1025 3213 1025 2328 
Q 1025 1447 1429 934 
Q 1834 422 2522 422 
Q 3209 422 3611 934 
Q 4013 1447 4013 2328 
Q 4013 3213 3611 3725 
Q 3209 4238 2522 4238 
z
M 2522 4750 
Q 3503 4750 4090 4092 
Q 4678 3434 4678 2328 
Q 4678 1225 4090 567 
Q 3503 -91 2522 -91 
Q 1538 -91 948 565 
Q 359 1222 359 2328 
Q 359 3434 948 4092 
Q 1538 4750 2522 4750 
z
" transform="scale(0.015625)"/>
       </defs>
       <use xlink:href="#DejaVuSans-4f"/>
       <use xlink:href="#DejaVuSans-72" x="78.710938"/>
       <use xlink:href="#DejaVuSans-69" x="119.824219"/>
       <use xlink:href="#DejaVuSans-2e" x="147.607422"/>
       <use xlink:href="#DejaVuSans-20" x="179.394531"/>
       <use xlink:href="#DejaVuSans-62" x="211.181641"/>
       <use xlink:href="#DejaVuSans-65" x="274.658203"/>
       <use xlink:href="#DejaVuSans-6c" x="336.181641"/>
       <use xlink:href="#DejaVuSans-69" x="363.964844"/>
       <use xlink:href="#DejaVuSans-65" x="391.748047"/>
       <use xlink:href="#DejaVuSans-66" x="453.271484"/>
      </g>
     </g>
    </g>
    <g id="ytick_4">
     <g id="line2d_14"/>
     <g id="text_9">
      <!-- PATH w/o adapt. trans. -->
      <g transform="translate(7.2 157.348901) scale(0.1 -0.1)">
       <defs>
        <path id="DejaVuSans-41" d="M 2188 4044 
L 1331 1722 
L 3047 1722 
L 2188 4044 
z
M 1831 4666 
L 2547 4666 
L 4325 0 
L 3669 0 
L 3244 1197 
L 1141 1197 
L 716 0 
L 50 0 
L 1831 4666 
z
" transform="scale(0.015625)"/>
        <path id="DejaVuSans-48" d="M 628 4666 
L 1259 4666 
L 1259 2753 
L 3553 2753 
L 3553 4666 
L 4184 4666 
L 4184 0 
L 3553 0 
L 3553 2222 
L 1259 2222 
L 1259 0 
L 628 0 
L 628 4666 
z
" transform="scale(0.015625)"/>
        <path id="DejaVuSans-77" d="M 269 3500 
L 844 3500 
L 1563 769 
L 2278 3500 
L 2956 3500 
L 3675 769 
L 4391 3500 
L 4966 3500 
L 4050 0 
L 3372 0 
L 2619 2869 
L 1863 0 
L 1184 0 
L 269 3500 
z
" transform="scale(0.015625)"/>
        <path id="DejaVuSans-2f" d="M 1625 4666 
L 2156 4666 
L 531 -594 
L 0 -594 
L 1625 4666 
z
" transform="scale(0.015625)"/>
        <path id="DejaVuSans-64" d="M 2906 2969 
L 2906 4863 
L 3481 4863 
L 3481 0 
L 2906 0 
L 2906 525 
Q 2725 213 2448 61 
Q 2172 -91 1784 -91 
Q 1150 -91 751 415 
Q 353 922 353 1747 
Q 353 2572 751 3078 
Q 1150 3584 1784 3584 
Q 2172 3584 2448 3432 
Q 2725 3281 2906 2969 
z
M 947 1747 
Q 947 1113 1208 752 
Q 1469 391 1925 391 
Q 2381 391 2643 752 
Q 2906 1113 2906 1747 
Q 2906 2381 2643 2742 
Q 2381 3103 1925 3103 
Q 1469 3103 1208 2742 
Q 947 2381 947 1747 
z
" transform="scale(0.015625)"/>
       </defs>
       <use xlink:href="#DejaVuSans-50"/>
       <use xlink:href="#DejaVuSans-41" x="53.927734"/>
       <use xlink:href="#DejaVuSans-54" x="114.585938"/>
       <use xlink:href="#DejaVuSans-48" x="175.669922"/>
       <use xlink:href="#DejaVuSans-20" x="250.865234"/>
       <use xlink:href="#DejaVuSans-77" x="282.652344"/>
       <use xlink:href="#DejaVuSans-2f" x="364.439453"/>
       <use xlink:href="#DejaVuSans-6f" x="398.130859"/>
       <use xlink:href="#DejaVuSans-20" x="459.3125"/>
       <use xlink:href="#DejaVuSans-61" x="491.099609"/>
       <use xlink:href="#DejaVuSans-64" x="552.378906"/>
       <use xlink:href="#DejaVuSans-61" x="615.855469"/>
       <use xlink:href="#DejaVuSans-70" x="677.134766"/>
       <use xlink:href="#DejaVuSans-74" x="740.611328"/>
       <use xlink:href="#DejaVuSans-2e" x="779.820312"/>
       <use xlink:href="#DejaVuSans-20" x="811.607422"/>
       <use xlink:href="#DejaVuSans-74" x="843.394531"/>
       <use xlink:href="#DejaVuSans-72" x="882.603516"/>
       <use xlink:href="#DejaVuSans-61" x="923.716797"/>
       <use xlink:href="#DejaVuSans-6e" x="984.996094"/>
       <use xlink:href="#DejaVuSans-73" x="1048.375"/>
       <use xlink:href="#DejaVuSans-2e" x="1100.474609"/>
      </g>
     </g>
    </g>
    <g id="ytick_5">
     <g id="line2d_15"/>
     <g id="text_10">
      <!-- PATH w/o ori. -->
      <g transform="translate(55.128125 191.190214) scale(0.1 -0.1)">
       <use xlink:href="#DejaVuSans-50"/>
       <use xlink:href="#DejaVuSans-41" x="53.927734"/>
       <use xlink:href="#DejaVuSans-54" x="114.585938"/>
       <use xlink:href="#DejaVuSans-48" x="175.669922"/>
       <use xlink:href="#DejaVuSans-20" x="250.865234"/>
       <use xlink:href="#DejaVuSans-77" x="282.652344"/>
       <use xlink:href="#DejaVuSans-2f" x="364.439453"/>
       <use xlink:href="#DejaVuSans-6f" x="398.130859"/>
       <use xlink:href="#DejaVuSans-20" x="459.3125"/>
       <use xlink:href="#DejaVuSans-6f" x="491.099609"/>
       <use xlink:href="#DejaVuSans-72" x="552.28125"/>
       <use xlink:href="#DejaVuSans-69" x="593.394531"/>
       <use xlink:href="#DejaVuSans-2e" x="621.177734"/>
      </g>
     </g>
    </g>
    <g id="ytick_6">
     <g id="line2d_16"/>
     <g id="text_11">
      <!-- PATH w/o pos. -->
      <g transform="translate(50.459375 225.031527) scale(0.1 -0.1)">
       <use xlink:href="#DejaVuSans-50"/>
       <use xlink:href="#DejaVuSans-41" x="53.927734"/>
       <use xlink:href="#DejaVuSans-54" x="114.585938"/>
       <use xlink:href="#DejaVuSans-48" x="175.669922"/>
       <use xlink:href="#DejaVuSans-20" x="250.865234"/>
       <use xlink:href="#DejaVuSans-77" x="282.652344"/>
       <use xlink:href="#DejaVuSans-2f" x="364.439453"/>
       <use xlink:href="#DejaVuSans-6f" x="398.130859"/>
       <use xlink:href="#DejaVuSans-20" x="459.3125"/>
       <use xlink:href="#DejaVuSans-70" x="491.099609"/>
       <use xlink:href="#DejaVuSans-6f" x="554.576172"/>
       <use xlink:href="#DejaVuSans-73" x="615.757812"/>
       <use xlink:href="#DejaVuSans-2e" x="667.857422"/>
      </g>
     </g>
    </g>
    <g id="ytick_7">
     <g id="line2d_17"/>
     <g id="text_12">
      <!-- PATH -->
      <g transform="translate(95.335938 258.872841) scale(0.1 -0.1)">
       <use xlink:href="#DejaVuSans-50"/>
       <use xlink:href="#DejaVuSans-41" x="53.927734"/>
       <use xlink:href="#DejaVuSans-54" x="114.585938"/>
       <use xlink:href="#DejaVuSans-48" x="175.669922"/>
      </g>
     </g>
    </g>
   </g>
   <g id="patch_3">
    <path d="M 123.921875 42.211761 
L 401.016944 42.211761 
L 401.016944 61.839723 
L 123.921875 61.839723 
z
" clip-path="url(#pc8cbf12369)" style="fill: #9baabd"/>
   </g>
   <g id="patch_4">
    <path d="M 123.921875 76.053074 
L 373.237989 76.053074 
L 373.237989 95.681036 
L 123.921875 95.681036 
z
" clip-path="url(#pc8cbf12369)" style="fill: #9baabd"/>
   </g>
   <g id="patch_5">
    <path d="M 123.921875 109.894388 
L 382.960623 109.894388 
L 382.960623 129.522349 
L 123.921875 129.522349 
z
" clip-path="url(#pc8cbf12369)" style="fill: #9baabd"/>
   </g>
   <g id="patch_6">
    <path d="M 123.921875 143.735701 
L 326.013767 143.735701 
L 326.013767 163.363663 
L 123.921875 163.363663 
z
" clip-path="url(#pc8cbf12369)" style="fill: #9baabd"/>
   </g>
   <g id="patch_7">
    <path d="M 123.921875 177.577014 
L 362.126408 177.577014 
L 362.126408 197.204976 
L 123.921875 197.204976 
z
" clip-path="url(#pc8cbf12369)" style="fill: #9baabd"/>
   </g>
   <g id="patch_8">
    <path d="M 123.921875 211.418328 
L 341.292192 211.418328 
L 341.292192 231.04629 
L 123.921875 231.04629 
z
" clip-path="url(#pc8cbf12369)" style="fill: #9baabd"/>
   </g>
   <g id="patch_9">
    <path d="M 123.921875 245.259641 
L 304.485078 245.259641 
L 304.485078 264.887603 
L 123.921875 264.887603 
z
" clip-path="url(#pc8cbf12369)" style="fill: #169b69"/>
   </g>
   <g id="text_13">
    <!-- 39.90 -->
    <g style="fill: #334155" transform="translate(407.94432 54.785117) scale(0.1 -0.1)">
     <defs>
      <path id="DejaVuSans-39" d="M 703 97 
L 703 672 
Q 941 559 1184 500 
Q 1428 441 1663 441 
Q 2288 441 2617 861 
Q 2947 1281 2994 2138 
Q 2813 1869 2534 1725 
Q 2256 1581 1919 1581 
Q 1219 1581 811 2004 
Q 403 2428 403 3163 
Q 403 3881 828 4315 
Q 1253 4750 1959 4750 
Q 2769 4750 3195 4129 
Q 3622 3509 3622 2328 
Q 3622 1225 3098 567 
Q 2575 -91 1691 -91 
Q 1453 -91 1209 -44 
Q 966 3 703 97 
z
M 1959 2075 
Q 2384 2075 2632 2365 
Q 2881 2656 2881 3163 
Q 2881 3666 2632 3958 
Q 2384 4250 1959 4250 
Q 1534 4250 1286 3958 
Q 1038 3666 1038 3163 
Q 1038 2656 1286 2365 
Q 1534 2075 1959 2075 
z
" transform="scale(0.015625)"/>
     </defs>
     <use xlink:href="#DejaVuSans-33"/>
     <use xlink:href="#DejaVuSans-39" x="63.623047"/>
     <use xlink:href="#DejaVuSans-2e" x="127.246094"/>
     <use xlink:href="#DejaVuSans-39" x="159.033203"/>
     <use xlink:href="#DejaVuSans-30" x="222.65625"/>
    </g>
   </g>
   <g id="text_14">
    <!-- 35.90 -->
    <g style="fill: #334155" transform="translate(380.165366 88.62643) scale(0.1 -0.1)">
     <defs>
      <path id="DejaVuSans-35" d="M 691 4666 
L 3169 4666 
L 3169 4134 
L 1269 4134 
L 1269 2991 
Q 1406 3038 1543 3061 
Q 1681 3084 1819 3084 
Q 2600 3084 3056 2656 
Q 3513 2228 3513 1497 
Q 3513 744 3044 326 
Q 2575 -91 1722 -91 
Q 1428 -91 1123 -41 
Q 819 9 494 109 
L 494 744 
Q 775 591 1075 516 
Q 1375 441 1709 441 
Q 2250 441 2565 725 
Q 2881 1009 2881 1497 
Q 2881 1984 2565 2268 
Q 2250 2553 1709 2553 
Q 1456 2553 1204 2497 
Q 953 2441 691 2322 
L 691 4666 
z
" transform="scale(0.015625)"/>
     </defs>
     <use xlink:href="#DejaVuSans-33"/>
     <use xlink:href="#DejaVuSans-35" x="63.623047"/>
     <use xlink:href="#DejaVuSans-2e" x="127.246094"/>
     <use xlink:href="#DejaVuSans-39" x="159.033203"/>
     <use xlink:href="#DejaVuSans-30" x="222.65625"/>
    </g>
   </g>
   <g id="text_15">
    <!-- 37.30 -->
    <g style="fill: #334155" transform="translate(389.888 122.467743) scale(0.1 -0.1)">
     <defs>
      <path id="DejaVuSans-37" d="M 525 4666 
L 3525 4666 
L 3525 4397 
L 1831 0 
L 1172 0 
L 2766 4134 
L 525 4134 
L 525 4666 
z
" transform="scale(0.015625)"/>
     </defs>
     <use xlink:href="#DejaVuSans-33"/>
     <use xlink:href="#DejaVuSans-37" x="63.623047"/>
     <use xlink:href="#DejaVuSans-2e" x="127.246094"/>
     <use xlink:href="#DejaVuSans-33" x="159.033203"/>
     <use xlink:href="#DejaVuSans-30" x="222.65625"/>
    </g>
   </g>
   <g id="text_16">
    <!-- 29.10 -->
    <g style="fill: #334155" transform="translate(332.941144 156.309057) scale(0.1 -0.1)">
     <use xlink:href="#DejaVuSans-32"/>
     <use xlink:href="#DejaVuSans-39" x="63.623047"/>
     <use xlink:href="#DejaVuSans-2e" x="127.246094"/>
     <use xlink:href="#DejaVuSans-31" x="159.033203"/>
     <use xlink:href="#DejaVuSans-30" x="222.65625"/>
    </g>
   </g>
   <g id="text_17">
    <!-- 34.30 -->
    <g style="fill: #334155" transform="translate(369.053784 190.15037) scale(0.1 -0.1)">
     <use xlink:href="#DejaVuSans-33"/>
     <use xlink:href="#DejaVuSans-34" x="63.623047"/>
     <use xlink:href="#DejaVuSans-2e" x="127.246094"/>
     <use xlink:href="#DejaVuSans-33" x="159.033203"/>
     <use xlink:href="#DejaVuSans-30" x="222.65625"/>
    </g>
   </g>
   <g id="text_18">
    <!-- 31.30 -->
    <g style="fill: #334155" transform="translate(348.219569 223.991684) scale(0.1 -0.1)">
     <use xlink:href="#DejaVuSans-33"/>
     <use xlink:href="#DejaVuSans-31" x="63.623047"/>
     <use xlink:href="#DejaVuSans-2e" x="127.246094"/>
     <use xlink:href="#DejaVuSans-33" x="159.033203"/>
     <use xlink:href="#DejaVuSans-30" x="222.65625"/>
    </g>
   </g>
   <g id="text_19">
    <!-- 26.00 -->
    <g style="fill: #126947" transform="translate(311.412454 257.832997) scale(0.1 -0.1)">
     <defs>
      <path id="DejaVuSans-Bold-32" d="M 1844 884 
L 3897 884 
L 3897 0 
L 506 0 
L 506 884 
L 2209 2388 
Q 2438 2594 2547 2791 
Q 2656 2988 2656 3200 
Q 2656 3528 2436 3728 
Q 2216 3928 1850 3928 
Q 1569 3928 1234 3808 
Q 900 3688 519 3450 
L 519 4475 
Q 925 4609 1322 4679 
Q 1719 4750 2100 4750 
Q 2938 4750 3402 4381 
Q 3866 4013 3866 3353 
Q 3866 2972 3669 2642 
Q 3472 2313 2841 1759 
L 1844 884 
z
" transform="scale(0.015625)"/>
      <path id="DejaVuSans-Bold-36" d="M 2316 2303 
Q 2000 2303 1842 2098 
Q 1684 1894 1684 1484 
Q 1684 1075 1842 870 
Q 2000 666 2316 666 
Q 2634 666 2792 870 
Q 2950 1075 2950 1484 
Q 2950 1894 2792 2098 
Q 2634 2303 2316 2303 
z
M 3803 4544 
L 3803 3681 
Q 3506 3822 3243 3889 
Q 2981 3956 2731 3956 
Q 2194 3956 1894 3657 
Q 1594 3359 1544 2772 
Q 1750 2925 1990 3001 
Q 2231 3078 2516 3078 
Q 3231 3078 3670 2659 
Q 4109 2241 4109 1563 
Q 4109 813 3618 361 
Q 3128 -91 2303 -91 
Q 1394 -91 895 523 
Q 397 1138 397 2266 
Q 397 3422 980 4083 
Q 1563 4744 2578 4744 
Q 2900 4744 3203 4694 
Q 3506 4644 3803 4544 
z
" transform="scale(0.015625)"/>
      <path id="DejaVuSans-Bold-2e" d="M 653 1209 
L 1778 1209 
L 1778 0 
L 653 0 
L 653 1209 
z
" transform="scale(0.015625)"/>
      <path id="DejaVuSans-Bold-30" d="M 2944 2338 
Q 2944 3213 2780 3570 
Q 2616 3928 2228 3928 
Q 1841 3928 1675 3570 
Q 1509 3213 1509 2338 
Q 1509 1453 1675 1090 
Q 1841 728 2228 728 
Q 2613 728 2778 1090 
Q 2944 1453 2944 2338 
z
M 4147 2328 
Q 4147 1169 3647 539 
Q 3147 -91 2228 -91 
Q 1306 -91 806 539 
Q 306 1169 306 2328 
Q 306 3491 806 4120 
Q 1306 4750 2228 4750 
Q 3147 4750 3647 4120 
Q 4147 3491 4147 2328 
z
" transform="scale(0.015625)"/>
     </defs>
     <use xlink:href="#DejaVuSans-Bold-32"/>
     <use xlink:href="#DejaVuSans-Bold-36" x="69.580078"/>
     <use xlink:href="#DejaVuSans-Bold-2e" x="139.160156"/>
     <use xlink:href="#DejaVuSans-Bold-30" x="177.148438"/>
     <use xlink:href="#DejaVuSans-Bold-30" x="246.728516"/>
    </g>
   </g>
   <g id="text_20">
    <!-- Completion time (s)  ↓ -->
    <g transform="translate(123.921875 17.077969) scale(0.13 -0.13)">
     <defs>
      <path id="DejaVuSans-Bold-43" d="M 4288 256 
Q 3956 84 3597 -3 
Q 3238 -91 2847 -91 
Q 1681 -91 1000 561 
Q 319 1213 319 2328 
Q 319 3447 1000 4098 
Q 1681 4750 2847 4750 
Q 3238 4750 3597 4662 
Q 3956 4575 4288 4403 
L 4288 3438 
Q 3953 3666 3628 3772 
Q 3303 3878 2944 3878 
Q 2300 3878 1931 3465 
Q 1563 3053 1563 2328 
Q 1563 1606 1931 1193 
Q 2300 781 2944 781 
Q 3303 781 3628 887 
Q 3953 994 4288 1222 
L 4288 256 
z
" transform="scale(0.015625)"/>
      <path id="DejaVuSans-Bold-6f" d="M 2203 2784 
Q 1831 2784 1636 2517 
Q 1441 2250 1441 1747 
Q 1441 1244 1636 976 
Q 1831 709 2203 709 
Q 2569 709 2762 976 
Q 2956 1244 2956 1747 
Q 2956 2250 2762 2517 
Q 2569 2784 2203 2784 
z
M 2203 3584 
Q 3106 3584 3614 3096 
Q 4122 2609 4122 1747 
Q 4122 884 3614 396 
Q 3106 -91 2203 -91 
Q 1297 -91 786 396 
Q 275 884 275 1747 
Q 275 2609 786 3096 
Q 1297 3584 2203 3584 
z
" transform="scale(0.015625)"/>
      <path id="DejaVuSans-Bold-6d" d="M 3781 2919 
Q 3994 3244 4286 3414 
Q 4578 3584 4928 3584 
Q 5531 3584 5847 3212 
Q 6163 2841 6163 2131 
L 6163 0 
L 5038 0 
L 5038 1825 
Q 5041 1866 5042 1909 
Q 5044 1953 5044 2034 
Q 5044 2406 4934 2573 
Q 4825 2741 4581 2741 
Q 4263 2741 4089 2478 
Q 3916 2216 3909 1719 
L 3909 0 
L 2784 0 
L 2784 1825 
Q 2784 2406 2684 2573 
Q 2584 2741 2328 2741 
Q 2006 2741 1831 2477 
Q 1656 2213 1656 1722 
L 1656 0 
L 531 0 
L 531 3500 
L 1656 3500 
L 1656 2988 
Q 1863 3284 2130 3434 
Q 2397 3584 2719 3584 
Q 3081 3584 3359 3409 
Q 3638 3234 3781 2919 
z
" transform="scale(0.015625)"/>
      <path id="DejaVuSans-Bold-70" d="M 1656 506 
L 1656 -1331 
L 538 -1331 
L 538 3500 
L 1656 3500 
L 1656 2988 
Q 1888 3294 2169 3439 
Q 2450 3584 2816 3584 
Q 3463 3584 3878 3070 
Q 4294 2556 4294 1747 
Q 4294 938 3878 423 
Q 3463 -91 2816 -91 
Q 2450 -91 2169 54 
Q 1888 200 1656 506 
z
M 2400 2772 
Q 2041 2772 1848 2508 
Q 1656 2244 1656 1747 
Q 1656 1250 1848 986 
Q 2041 722 2400 722 
Q 2759 722 2948 984 
Q 3138 1247 3138 1747 
Q 3138 2247 2948 2509 
Q 2759 2772 2400 2772 
z
" transform="scale(0.015625)"/>
      <path id="DejaVuSans-Bold-6c" d="M 538 4863 
L 1656 4863 
L 1656 0 
L 538 0 
L 538 4863 
z
" transform="scale(0.015625)"/>
      <path id="DejaVuSans-Bold-65" d="M 4031 1759 
L 4031 1441 
L 1416 1441 
Q 1456 1047 1700 850 
Q 1944 653 2381 653 
Q 2734 653 3104 758 
Q 3475 863 3866 1075 
L 3866 213 
Q 3469 63 3072 -14 
Q 2675 -91 2278 -91 
Q 1328 -91 801 392 
Q 275 875 275 1747 
Q 275 2603 792 3093 
Q 1309 3584 2216 3584 
Q 3041 3584 3536 3087 
Q 4031 2591 4031 1759 
z
M 2881 2131 
Q 2881 2450 2695 2645 
Q 2509 2841 2209 2841 
Q 1884 2841 1681 2658 
Q 1478 2475 1428 2131 
L 2881 2131 
z
" transform="scale(0.015625)"/>
      <path id="DejaVuSans-Bold-74" d="M 1759 4494 
L 1759 3500 
L 2913 3500 
L 2913 2700 
L 1759 2700 
L 1759 1216 
Q 1759 972 1856 886 
Q 1953 800 2241 800 
L 2816 800 
L 2816 0 
L 1856 0 
Q 1194 0 917 276 
Q 641 553 641 1216 
L 641 2700 
L 84 2700 
L 84 3500 
L 641 3500 
L 641 4494 
L 1759 4494 
z
" transform="scale(0.015625)"/>
      <path id="DejaVuSans-Bold-69" d="M 538 3500 
L 1656 3500 
L 1656 0 
L 538 0 
L 538 3500 
z
M 538 4863 
L 1656 4863 
L 1656 3950 
L 538 3950 
L 538 4863 
z
" transform="scale(0.015625)"/>
      <path id="DejaVuSans-Bold-6e" d="M 4056 2131 
L 4056 0 
L 2931 0 
L 2931 347 
L 2931 1631 
Q 2931 2084 2911 2256 
Q 2891 2428 2841 2509 
Q 2775 2619 2662 2680 
Q 2550 2741 2406 2741 
Q 2056 2741 1856 2470 
Q 1656 2200 1656 1722 
L 1656 0 
L 538 0 
L 538 3500 
L 1656 3500 
L 1656 2988 
Q 1909 3294 2193 3439 
Q 2478 3584 2822 3584 
Q 3428 3584 3742 3212 
Q 4056 2841 4056 2131 
z
" transform="scale(0.015625)"/>
      <path id="DejaVuSans-Bold-20" transform="scale(0.015625)"/>
      <path id="DejaVuSans-Bold-28" d="M 2413 -844 
L 1484 -844 
Q 1006 -72 778 623 
Q 550 1319 550 2003 
Q 550 2688 779 3389 
Q 1009 4091 1484 4856 
L 2413 4856 
Q 2013 4116 1813 3408 
Q 1613 2700 1613 2009 
Q 1613 1319 1811 609 
Q 2009 -100 2413 -844 
z
" transform="scale(0.015625)"/>
      <path id="DejaVuSans-Bold-73" d="M 3272 3391 
L 3272 2541 
Q 2913 2691 2578 2766 
Q 2244 2841 1947 2841 
Q 1628 2841 1473 2761 
Q 1319 2681 1319 2516 
Q 1319 2381 1436 2309 
Q 1553 2238 1856 2203 
L 2053 2175 
Q 2913 2066 3209 1816 
Q 3506 1566 3506 1031 
Q 3506 472 3093 190 
Q 2681 -91 1863 -91 
Q 1516 -91 1145 -36 
Q 775 19 384 128 
L 384 978 
Q 719 816 1070 734 
Q 1422 653 1784 653 
Q 2113 653 2278 743 
Q 2444 834 2444 1013 
Q 2444 1163 2330 1236 
Q 2216 1309 1875 1350 
L 1678 1375 
Q 931 1469 631 1722 
Q 331 1975 331 2491 
Q 331 3047 712 3315 
Q 1094 3584 1881 3584 
Q 2191 3584 2531 3537 
Q 2872 3491 3272 3391 
z
" transform="scale(0.015625)"/>
      <path id="DejaVuSans-Bold-29" d="M 513 -844 
Q 913 -100 1113 609 
Q 1313 1319 1313 2009 
Q 1313 2700 1113 3408 
Q 913 4116 513 4856 
L 1441 4856 
Q 1916 4091 2145 3389 
Q 2375 2688 2375 2003 
Q 2375 1319 2147 623 
Q 1919 -72 1441 -844 
L 513 -844 
z
" transform="scale(0.015625)"/>
      <path id="DejaVuSans-Bold-2193" d="M 2903 -22 
L 2466 -22 
L 1238 1206 
L 1691 1659 
L 2309 1041 
L 2309 4666 
L 3059 4666 
L 3059 1041 
L 3678 1659 
L 4131 1206 
L 2903 -22 
z
" transform="scale(0.015625)"/>
     </defs>
     <use xlink:href="#DejaVuSans-Bold-43"/>
     <use xlink:href="#DejaVuSans-Bold-6f" x="73.388672"/>
     <use xlink:href="#DejaVuSans-Bold-6d" x="142.089844"/>
     <use xlink:href="#DejaVuSans-Bold-70" x="246.289062"/>
     <use xlink:href="#DejaVuSans-Bold-6c" x="317.871094"/>
     <use xlink:href="#DejaVuSans-Bold-65" x="352.148438"/>
     <use xlink:href="#DejaVuSans-Bold-74" x="419.970703"/>
     <use xlink:href="#DejaVuSans-Bold-69" x="467.773438"/>
     <use xlink:href="#DejaVuSans-Bold-6f" x="502.050781"/>
     <use xlink:href="#DejaVuSans-Bold-6e" x="570.751953"/>
     <use xlink:href="#DejaVuSans-Bold-20" x="641.943359"/>
     <use xlink:href="#DejaVuSans-Bold-74" x="676.757812"/>
     <use xlink:href="#DejaVuSans-Bold-69" x="724.560547"/>
     <use xlink:href="#DejaVuSans-Bold-6d" x="758.837891"/>
     <use xlink:href="#DejaVuSans-Bold-65" x="863.037109"/>
     <use xlink:href="#DejaVuSans-Bold-20" x="930.859375"/>
     <use xlink:href="#DejaVuSans-Bold-28" x="965.673828"/>
     <use xlink:href="#DejaVuSans-Bold-73" x="1011.376953"/>
     <use xlink:href="#DejaVuSans-Bold-29" x="1070.898438"/>
     <use xlink:href="#DejaVuSans-Bold-20" x="1116.601562"/>
     <use xlink:href="#DejaVuSans-Bold-20" x="1151.416016"/>
     <use xlink:href="#DejaVuSans-Bold-2193" x="1186.230469"/>
    </g>
   </g>
  </g>
  <g id="axes_2">
   <g id="patch_10">
    <path d="M 593.601635 276.021395 
L 937.19952 276.021395 
L 937.19952 31.077969 
L 593.601635 31.077969 
z
" style="fill: #ffffff"/>
   </g>
   <g id="matplotlib.axis_3">
    <g id="xtick_6">
     <g id="line2d_18">
      <path d="M 593.601635 276.021395 
L 593.601635 31.077969 
" clip-path="url(#pe72c23d908)" style="fill: none; stroke: #edf1f5; stroke-width: 0.8; stroke-linecap: square"/>
     </g>
     <g id="line2d_19"/>
     <g id="text_21">
      <!-- 0 -->
      <g transform="translate(590.420385 287.119832) scale(0.1 -0.1)">
       <use xlink:href="#DejaVuSans-30"/>
      </g>
     </g>
    </g>
    <g id="xtick_7">
     <g id="line2d_20">
      <path d="M 657.625449 276.021395 
L 657.625449 31.077969 
" clip-path="url(#pe72c23d908)" style="fill: none; stroke: #edf1f5; stroke-width: 0.8; stroke-linecap: square"/>
     </g>
     <g id="line2d_21"/>
     <g id="text_22">
      <!-- 1 -->
      <g transform="translate(654.444199 287.119832) scale(0.1 -0.1)">
       <use xlink:href="#DejaVuSans-31"/>
      </g>
     </g>
    </g>
    <g id="xtick_8">
     <g id="line2d_22">
      <path d="M 721.649264 276.021395 
L 721.649264 31.077969 
" clip-path="url(#pe72c23d908)" style="fill: none; stroke: #edf1f5; stroke-width: 0.8; stroke-linecap: square"/>
     </g>
     <g id="line2d_23"/>
     <g id="text_23">
      <!-- 2 -->
      <g transform="translate(718.468014 287.119832) scale(0.1 -0.1)">
       <use xlink:href="#DejaVuSans-32"/>
      </g>
     </g>
    </g>
    <g id="xtick_9">
     <g id="line2d_24">
      <path d="M 785.673078 276.021395 
L 785.673078 31.077969 
" clip-path="url(#pe72c23d908)" style="fill: none; stroke: #edf1f5; stroke-width: 0.8; stroke-linecap: square"/>
     </g>
     <g id="line2d_25"/>
     <g id="text_24">
      <!-- 3 -->
      <g transform="translate(782.491828 287.119832) scale(0.1 -0.1)">
       <use xlink:href="#DejaVuSans-33"/>
      </g>
     </g>
    </g>
    <g id="xtick_10">
     <g id="line2d_26">
      <path d="M 849.696892 276.021395 
L 849.696892 31.077969 
" clip-path="url(#pe72c23d908)" style="fill: none; stroke: #edf1f5; stroke-width: 0.8; stroke-linecap: square"/>
     </g>
     <g id="line2d_27"/>
     <g id="text_25">
      <!-- 4 -->
      <g transform="translate(846.515642 287.119832) scale(0.1 -0.1)">
       <use xlink:href="#DejaVuSans-34"/>
      </g>
     </g>
    </g>
    <g id="xtick_11">
     <g id="line2d_28">
      <path d="M 913.720707 276.021395 
L 913.720707 31.077969 
" clip-path="url(#pe72c23d908)" style="fill: none; stroke: #edf1f5; stroke-width: 0.8; stroke-linecap: square"/>
     </g>
     <g id="line2d_29"/>
     <g id="text_26">
      <!-- 5 -->
      <g transform="translate(910.539457 287.119832) scale(0.1 -0.1)">
       <use xlink:href="#DejaVuSans-35"/>
      </g>
     </g>
    </g>
   </g>
   <g id="matplotlib.axis_4">
    <g id="ytick_8">
     <g id="line2d_30"/>
     <g id="text_27">
      <!-- Teleoperation -->
      <g transform="translate(522.595385 55.82496) scale(0.1 -0.1)">
       <use xlink:href="#DejaVuSans-54"/>
       <use xlink:href="#DejaVuSans-65" x="44.083984"/>
       <use xlink:href="#DejaVuSans-6c" x="105.607422"/>
       <use xlink:href="#DejaVuSans-65" x="133.390625"/>
       <use xlink:href="#DejaVuSans-6f" x="194.914062"/>
       <use xlink:href="#DejaVuSans-70" x="256.095703"/>
       <use xlink:href="#DejaVuSans-65" x="319.572266"/>
       <use xlink:href="#DejaVuSans-72" x="381.095703"/>
       <use xlink:href="#DejaVuSans-61" x="422.208984"/>
       <use xlink:href="#DejaVuSans-74" x="483.488281"/>
       <use xlink:href="#DejaVuSans-69" x="522.697266"/>
       <use xlink:href="#DejaVuSans-6f" x="550.480469"/>
       <use xlink:href="#DejaVuSans-6e" x="611.662109"/>
      </g>
     </g>
    </g>
    <g id="ytick_9">
     <g id="line2d_31"/>
     <g id="text_28">
      <!-- Pos. belief -->
      <g transform="translate(539.018823 89.666274) scale(0.1 -0.1)">
       <use xlink:href="#DejaVuSans-50"/>
       <use xlink:href="#DejaVuSans-6f" x="56.677734"/>
       <use xlink:href="#DejaVuSans-73" x="117.859375"/>
       <use xlink:href="#DejaVuSans-2e" x="169.958984"/>
       <use xlink:href="#DejaVuSans-20" x="201.746094"/>
       <use xlink:href="#DejaVuSans-62" x="233.533203"/>
       <use xlink:href="#DejaVuSans-65" x="297.009766"/>
       <use xlink:href="#DejaVuSans-6c" x="358.533203"/>
       <use xlink:href="#DejaVuSans-69" x="386.316406"/>
       <use xlink:href="#DejaVuSans-65" x="414.099609"/>
       <use xlink:href="#DejaVuSans-66" x="475.623047"/>
      </g>
     </g>
    </g>
    <g id="ytick_10">
     <g id="line2d_32"/>
     <g id="text_29">
      <!-- Ori. belief -->
      <g transform="translate(541.253198 123.507587) scale(0.1 -0.1)">
       <use xlink:href="#DejaVuSans-4f"/>
       <use xlink:href="#DejaVuSans-72" x="78.710938"/>
       <use xlink:href="#DejaVuSans-69" x="119.824219"/>
       <use xlink:href="#DejaVuSans-2e" x="147.607422"/>
       <use xlink:href="#DejaVuSans-20" x="179.394531"/>
       <use xlink:href="#DejaVuSans-62" x="211.181641"/>
       <use xlink:href="#DejaVuSans-65" x="274.658203"/>
       <use xlink:href="#DejaVuSans-6c" x="336.181641"/>
       <use xlink:href="#DejaVuSans-69" x="363.964844"/>
       <use xlink:href="#DejaVuSans-65" x="391.748047"/>
       <use xlink:href="#DejaVuSans-66" x="453.271484"/>
      </g>
     </g>
    </g>
    <g id="ytick_11">
     <g id="line2d_33"/>
     <g id="text_30">
      <!-- PATH w/o adapt. trans. -->
      <g transform="translate(476.87976 157.348901) scale(0.1 -0.1)">
       <use xlink:href="#DejaVuSans-50"/>
       <use xlink:href="#DejaVuSans-41" x="53.927734"/>
       <use xlink:href="#DejaVuSans-54" x="114.585938"/>
       <use xlink:href="#DejaVuSans-48" x="175.669922"/>
       <use xlink:href="#DejaVuSans-20" x="250.865234"/>
       <use xlink:href="#DejaVuSans-77" x="282.652344"/>
       <use xlink:href="#DejaVuSans-2f" x="364.439453"/>
       <use xlink:href="#DejaVuSans-6f" x="398.130859"/>
       <use xlink:href="#DejaVuSans-20" x="459.3125"/>
       <use xlink:href="#DejaVuSans-61" x="491.099609"/>
       <use xlink:href="#DejaVuSans-64" x="552.378906"/>
       <use xlink:href="#DejaVuSans-61" x="615.855469"/>
       <use xlink:href="#DejaVuSans-70" x="677.134766"/>
       <use xlink:href="#DejaVuSans-74" x="740.611328"/>
       <use xlink:href="#DejaVuSans-2e" x="779.820312"/>
       <use xlink:href="#DejaVuSans-20" x="811.607422"/>
       <use xlink:href="#DejaVuSans-74" x="843.394531"/>
       <use xlink:href="#DejaVuSans-72" x="882.603516"/>
       <use xlink:href="#DejaVuSans-61" x="923.716797"/>
       <use xlink:href="#DejaVuSans-6e" x="984.996094"/>
       <use xlink:href="#DejaVuSans-73" x="1048.375"/>
       <use xlink:href="#DejaVuSans-2e" x="1100.474609"/>
      </g>
     </g>
    </g>
    <g id="ytick_12">
     <g id="line2d_34"/>
     <g id="text_31">
      <!-- PATH w/o ori. -->
      <g transform="translate(524.807885 191.190214) scale(0.1 -0.1)">
       <use xlink:href="#DejaVuSans-50"/>
       <use xlink:href="#DejaVuSans-41" x="53.927734"/>
       <use xlink:href="#DejaVuSans-54" x="114.585938"/>
       <use xlink:href="#DejaVuSans-48" x="175.669922"/>
       <use xlink:href="#DejaVuSans-20" x="250.865234"/>
       <use xlink:href="#DejaVuSans-77" x="282.652344"/>
       <use xlink:href="#DejaVuSans-2f" x="364.439453"/>
       <use xlink:href="#DejaVuSans-6f" x="398.130859"/>
       <use xlink:href="#DejaVuSans-20" x="459.3125"/>
       <use xlink:href="#DejaVuSans-6f" x="491.099609"/>
       <use xlink:href="#DejaVuSans-72" x="552.28125"/>
       <use xlink:href="#DejaVuSans-69" x="593.394531"/>
       <use xlink:href="#DejaVuSans-2e" x="621.177734"/>
      </g>
     </g>
    </g>
    <g id="ytick_13">
     <g id="line2d_35"/>
     <g id="text_32">
      <!-- PATH w/o pos. -->
      <g transform="translate(520.139135 225.031527) scale(0.1 -0.1)">
       <use xlink:href="#DejaVuSans-50"/>
       <use xlink:href="#DejaVuSans-41" x="53.927734"/>
       <use xlink:href="#DejaVuSans-54" x="114.585938"/>
       <use xlink:href="#DejaVuSans-48" x="175.669922"/>
       <use xlink:href="#DejaVuSans-20" x="250.865234"/>
       <use xlink:href="#DejaVuSans-77" x="282.652344"/>
       <use xlink:href="#DejaVuSans-2f" x="364.439453"/>
       <use xlink:href="#DejaVuSans-6f" x="398.130859"/>
       <use xlink:href="#DejaVuSans-20" x="459.3125"/>
       <use xlink:href="#DejaVuSans-70" x="491.099609"/>
       <use xlink:href="#DejaVuSans-6f" x="554.576172"/>
       <use xlink:href="#DejaVuSans-73" x="615.757812"/>
       <use xlink:href="#DejaVuSans-2e" x="667.857422"/>
      </g>
     </g>
    </g>
    <g id="ytick_14">
     <g id="line2d_36"/>
     <g id="text_33">
      <!-- PATH -->
      <g transform="translate(565.015698 258.872841) scale(0.1 -0.1)">
       <use xlink:href="#DejaVuSans-50"/>
       <use xlink:href="#DejaVuSans-41" x="53.927734"/>
       <use xlink:href="#DejaVuSans-54" x="114.585938"/>
       <use xlink:href="#DejaVuSans-48" x="175.669922"/>
      </g>
     </g>
    </g>
   </g>
   <g id="patch_11">
    <path d="M 593.601635 42.211761 
L 870.696704 42.211761 
L 870.696704 61.839723 
L 593.601635 61.839723 
z
" clip-path="url(#pe72c23d908)" style="fill: #9baabd"/>
   </g>
   <g id="patch_12">
    <path d="M 593.601635 76.053074 
L 732.405265 76.053074 
L 732.405265 95.681036 
L 593.601635 95.681036 
z
" clip-path="url(#pe72c23d908)" style="fill: #9baabd"/>
   </g>
   <g id="patch_13">
    <path d="M 593.601635 109.894388 
L 770.307363 109.894388 
L 770.307363 129.522349 
L 593.601635 129.522349 
z
" clip-path="url(#pe72c23d908)" style="fill: #9baabd"/>
   </g>
   <g id="patch_14">
    <path d="M 593.601635 143.735701 
L 658.777878 143.735701 
L 658.777878 163.363663 
L 593.601635 163.363663 
z
" clip-path="url(#pe72c23d908)" style="fill: #9baabd"/>
   </g>
   <g id="patch_15">
    <path d="M 593.601635 177.577014 
L 748.475242 177.577014 
L 748.475242 197.204976 
L 593.601635 197.204976 
z
" clip-path="url(#pe72c23d908)" style="fill: #9baabd"/>
   </g>
   <g id="patch_16">
    <path d="M 593.601635 211.418328 
L 693.158666 211.418328 
L 693.158666 231.04629 
L 593.601635 231.04629 
z
" clip-path="url(#pe72c23d908)" style="fill: #9baabd"/>
   </g>
   <g id="patch_17">
    <path d="M 593.601635 245.259641 
L 645.140806 245.259641 
L 645.140806 264.887603 
L 593.601635 264.887603 
z
" clip-path="url(#pe72c23d908)" style="fill: #169b69"/>
   </g>
   <g id="text_34">
    <!-- 4.328 -->
    <g style="fill: #334155" transform="translate(877.62408 54.785117) scale(0.1 -0.1)">
     <defs>
      <path id="DejaVuSans-38" d="M 2034 2216 
Q 1584 2216 1326 1975 
Q 1069 1734 1069 1313 
Q 1069 891 1326 650 
Q 1584 409 2034 409 
Q 2484 409 2743 651 
Q 3003 894 3003 1313 
Q 3003 1734 2745 1975 
Q 2488 2216 2034 2216 
z
M 1403 2484 
Q 997 2584 770 2862 
Q 544 3141 544 3541 
Q 544 4100 942 4425 
Q 1341 4750 2034 4750 
Q 2731 4750 3128 4425 
Q 3525 4100 3525 3541 
Q 3525 3141 3298 2862 
Q 3072 2584 2669 2484 
Q 3125 2378 3379 2068 
Q 3634 1759 3634 1313 
Q 3634 634 3220 271 
Q 2806 -91 2034 -91 
Q 1263 -91 848 271 
Q 434 634 434 1313 
Q 434 1759 690 2068 
Q 947 2378 1403 2484 
z
M 1172 3481 
Q 1172 3119 1398 2916 
Q 1625 2713 2034 2713 
Q 2441 2713 2670 2916 
Q 2900 3119 2900 3481 
Q 2900 3844 2670 4047 
Q 2441 4250 2034 4250 
Q 1625 4250 1398 4047 
Q 1172 3844 1172 3481 
z
" transform="scale(0.015625)"/>
     </defs>
     <use xlink:href="#DejaVuSans-34"/>
     <use xlink:href="#DejaVuSans-2e" x="63.623047"/>
     <use xlink:href="#DejaVuSans-33" x="95.410156"/>
     <use xlink:href="#DejaVuSans-32" x="159.033203"/>
     <use xlink:href="#DejaVuSans-38" x="222.65625"/>
    </g>
   </g>
   <g id="text_35">
    <!-- 2.168 -->
    <g style="fill: #334155" transform="translate(739.332641 88.62643) scale(0.1 -0.1)">
     <defs>
      <path id="DejaVuSans-36" d="M 2113 2584 
Q 1688 2584 1439 2293 
Q 1191 2003 1191 1497 
Q 1191 994 1439 701 
Q 1688 409 2113 409 
Q 2538 409 2786 701 
Q 3034 994 3034 1497 
Q 3034 2003 2786 2293 
Q 2538 2584 2113 2584 
z
M 3366 4563 
L 3366 3988 
Q 3128 4100 2886 4159 
Q 2644 4219 2406 4219 
Q 1781 4219 1451 3797 
Q 1122 3375 1075 2522 
Q 1259 2794 1537 2939 
Q 1816 3084 2150 3084 
Q 2853 3084 3261 2657 
Q 3669 2231 3669 1497 
Q 3669 778 3244 343 
Q 2819 -91 2113 -91 
Q 1303 -91 875 529 
Q 447 1150 447 2328 
Q 447 3434 972 4092 
Q 1497 4750 2381 4750 
Q 2619 4750 2861 4703 
Q 3103 4656 3366 4563 
z
" transform="scale(0.015625)"/>
     </defs>
     <use xlink:href="#DejaVuSans-32"/>
     <use xlink:href="#DejaVuSans-2e" x="63.623047"/>
     <use xlink:href="#DejaVuSans-31" x="95.410156"/>
     <use xlink:href="#DejaVuSans-36" x="159.033203"/>
     <use xlink:href="#DejaVuSans-38" x="222.65625"/>
    </g>
   </g>
   <g id="text_36">
    <!-- 2.760 -->
    <g style="fill: #334155" transform="translate(777.234739 122.467743) scale(0.1 -0.1)">
     <use xlink:href="#DejaVuSans-32"/>
     <use xlink:href="#DejaVuSans-2e" x="63.623047"/>
     <use xlink:href="#DejaVuSans-37" x="95.410156"/>
     <use xlink:href="#DejaVuSans-36" x="159.033203"/>
     <use xlink:href="#DejaVuSans-30" x="222.65625"/>
    </g>
   </g>
   <g id="text_37">
    <!-- 1.018 -->
    <g style="fill: #334155" transform="translate(665.705255 156.309057) scale(0.1 -0.1)">
     <use xlink:href="#DejaVuSans-31"/>
     <use xlink:href="#DejaVuSans-2e" x="63.623047"/>
     <use xlink:href="#DejaVuSans-30" x="95.410156"/>
     <use xlink:href="#DejaVuSans-31" x="159.033203"/>
     <use xlink:href="#DejaVuSans-38" x="222.65625"/>
    </g>
   </g>
   <g id="text_38">
    <!-- 2.419 -->
    <g style="fill: #334155" transform="translate(755.402619 190.15037) scale(0.1 -0.1)">
     <use xlink:href="#DejaVuSans-32"/>
     <use xlink:href="#DejaVuSans-2e" x="63.623047"/>
     <use xlink:href="#DejaVuSans-34" x="95.410156"/>
     <use xlink:href="#DejaVuSans-31" x="159.033203"/>
     <use xlink:href="#DejaVuSans-39" x="222.65625"/>
    </g>
   </g>
   <g id="text_39">
    <!-- 1.555 -->
    <g style="fill: #334155" transform="translate(700.086043 223.991684) scale(0.1 -0.1)">
     <use xlink:href="#DejaVuSans-31"/>
     <use xlink:href="#DejaVuSans-2e" x="63.623047"/>
     <use xlink:href="#DejaVuSans-35" x="95.410156"/>
     <use xlink:href="#DejaVuSans-35" x="159.033203"/>
     <use xlink:href="#DejaVuSans-35" x="222.65625"/>
    </g>
   </g>
   <g id="text_40">
    <!-- 0.805 -->
    <g style="fill: #126947" transform="translate(652.068182 257.832997) scale(0.1 -0.1)">
     <defs>
      <path id="DejaVuSans-Bold-38" d="M 2228 2088 
Q 1891 2088 1709 1903 
Q 1528 1719 1528 1375 
Q 1528 1031 1709 848 
Q 1891 666 2228 666 
Q 2563 666 2741 848 
Q 2919 1031 2919 1375 
Q 2919 1722 2741 1905 
Q 2563 2088 2228 2088 
z
M 1350 2484 
Q 925 2613 709 2878 
Q 494 3144 494 3541 
Q 494 4131 934 4440 
Q 1375 4750 2228 4750 
Q 3075 4750 3515 4442 
Q 3956 4134 3956 3541 
Q 3956 3144 3739 2878 
Q 3522 2613 3097 2484 
Q 3572 2353 3814 2058 
Q 4056 1763 4056 1313 
Q 4056 619 3595 264 
Q 3134 -91 2228 -91 
Q 1319 -91 855 264 
Q 391 619 391 1313 
Q 391 1763 633 2058 
Q 875 2353 1350 2484 
z
M 1631 3419 
Q 1631 3141 1786 2991 
Q 1941 2841 2228 2841 
Q 2509 2841 2662 2991 
Q 2816 3141 2816 3419 
Q 2816 3697 2662 3845 
Q 2509 3994 2228 3994 
Q 1941 3994 1786 3844 
Q 1631 3694 1631 3419 
z
" transform="scale(0.015625)"/>
      <path id="DejaVuSans-Bold-35" d="M 678 4666 
L 3669 4666 
L 3669 3781 
L 1638 3781 
L 1638 3059 
Q 1775 3097 1914 3117 
Q 2053 3138 2203 3138 
Q 3056 3138 3531 2711 
Q 4006 2284 4006 1522 
Q 4006 766 3489 337 
Q 2972 -91 2053 -91 
Q 1656 -91 1267 -14 
Q 878 63 494 219 
L 494 1166 
Q 875 947 1217 837 
Q 1559 728 1863 728 
Q 2300 728 2551 942 
Q 2803 1156 2803 1522 
Q 2803 1891 2551 2103 
Q 2300 2316 1863 2316 
Q 1603 2316 1309 2248 
Q 1016 2181 678 2041 
L 678 4666 
z
" transform="scale(0.015625)"/>
     </defs>
     <use xlink:href="#DejaVuSans-Bold-30"/>
     <use xlink:href="#DejaVuSans-Bold-2e" x="69.580078"/>
     <use xlink:href="#DejaVuSans-Bold-38" x="107.568359"/>
     <use xlink:href="#DejaVuSans-Bold-30" x="177.148438"/>
     <use xlink:href="#DejaVuSans-Bold-35" x="246.728516"/>
    </g>
   </g>
   <g id="text_41">
    <!-- Normalized jerk (×10¹⁰)  ↓ -->
    <g transform="translate(593.601635 17.077969) scale(0.13 -0.13)">
     <defs>
      <path id="DejaVuSans-Bold-4e" d="M 588 4666 
L 1931 4666 
L 3628 1466 
L 3628 4666 
L 4769 4666 
L 4769 0 
L 3425 0 
L 1728 3200 
L 1728 0 
L 588 0 
L 588 4666 
z
" transform="scale(0.015625)"/>
      <path id="DejaVuSans-Bold-72" d="M 3138 2547 
Q 2991 2616 2845 2648 
Q 2700 2681 2553 2681 
Q 2122 2681 1889 2404 
Q 1656 2128 1656 1613 
L 1656 0 
L 538 0 
L 538 3500 
L 1656 3500 
L 1656 2925 
Q 1872 3269 2151 3426 
Q 2431 3584 2822 3584 
Q 2878 3584 2943 3579 
Q 3009 3575 3134 3559 
L 3138 2547 
z
" transform="scale(0.015625)"/>
      <path id="DejaVuSans-Bold-61" d="M 2106 1575 
Q 1756 1575 1579 1456 
Q 1403 1338 1403 1106 
Q 1403 894 1545 773 
Q 1688 653 1941 653 
Q 2256 653 2472 879 
Q 2688 1106 2688 1447 
L 2688 1575 
L 2106 1575 
z
M 3816 1997 
L 3816 0 
L 2688 0 
L 2688 519 
Q 2463 200 2181 54 
Q 1900 -91 1497 -91 
Q 953 -91 614 226 
Q 275 544 275 1050 
Q 275 1666 698 1953 
Q 1122 2241 2028 2241 
L 2688 2241 
L 2688 2328 
Q 2688 2594 2478 2717 
Q 2269 2841 1825 2841 
Q 1466 2841 1156 2769 
Q 847 2697 581 2553 
L 581 3406 
Q 941 3494 1303 3539 
Q 1666 3584 2028 3584 
Q 2975 3584 3395 3211 
Q 3816 2838 3816 1997 
z
" transform="scale(0.015625)"/>
      <path id="DejaVuSans-Bold-7a" d="M 366 3500 
L 3419 3500 
L 3419 2719 
L 1575 800 
L 3419 800 
L 3419 0 
L 288 0 
L 288 781 
L 2131 2700 
L 366 2700 
L 366 3500 
z
" transform="scale(0.015625)"/>
      <path id="DejaVuSans-Bold-64" d="M 2919 2988 
L 2919 4863 
L 4044 4863 
L 4044 0 
L 2919 0 
L 2919 506 
Q 2688 197 2409 53 
Q 2131 -91 1766 -91 
Q 1119 -91 703 423 
Q 288 938 288 1747 
Q 288 2556 703 3070 
Q 1119 3584 1766 3584 
Q 2128 3584 2408 3439 
Q 2688 3294 2919 2988 
z
M 2181 722 
Q 2541 722 2730 984 
Q 2919 1247 2919 1747 
Q 2919 2247 2730 2509 
Q 2541 2772 2181 2772 
Q 1825 2772 1636 2509 
Q 1447 2247 1447 1747 
Q 1447 1247 1636 984 
Q 1825 722 2181 722 
z
" transform="scale(0.015625)"/>
      <path id="DejaVuSans-Bold-6a" d="M 538 3500 
L 1656 3500 
L 1656 63 
Q 1656 -641 1318 -1011 
Q 981 -1381 341 -1381 
L -213 -1381 
L -213 -647 
L -19 -647 
Q 300 -647 419 -503 
Q 538 -359 538 63 
L 538 3500 
z
M 538 4863 
L 1656 4863 
L 1656 3950 
L 538 3950 
L 538 4863 
z
" transform="scale(0.015625)"/>
      <path id="DejaVuSans-Bold-6b" d="M 538 4863 
L 1656 4863 
L 1656 2216 
L 2944 3500 
L 4244 3500 
L 2534 1894 
L 4378 0 
L 3022 0 
L 1656 1459 
L 1656 0 
L 538 0 
L 538 4863 
z
" transform="scale(0.015625)"/>
      <path id="DejaVuSans-Bold-d7" d="M 4563 3359 
L 3206 2003 
L 4563 653 
L 4038 128 
L 2681 1478 
L 1325 128 
L 800 653 
L 2156 2003 
L 800 3359 
L 1325 3884 
L 2681 2528 
L 4038 3884 
L 4563 3359 
z
" transform="scale(0.015625)"/>
      <path id="DejaVuSans-Bold-31" d="M 750 831 
L 1813 831 
L 1813 3847 
L 722 3622 
L 722 4441 
L 1806 4666 
L 2950 4666 
L 2950 831 
L 4013 831 
L 4013 0 
L 750 0 
L 750 831 
z
" transform="scale(0.015625)"/>
      <path id="DejaVuSans-Bold-b9" d="M 441 2578 
L 1088 2578 
L 1088 4206 
L 384 4044 
L 384 4544 
L 1100 4697 
L 1806 4697 
L 1806 2578 
L 2444 2578 
L 2444 2088 
L 441 2088 
L 441 2578 
z
" transform="scale(0.015625)"/>
      <path id="DejaVuSans-Bold-2070" d="M 1806 3400 
Q 1806 3891 1706 4091 
Q 1606 4291 1368 4291 
Q 1131 4291 1028 4091 
Q 928 3891 928 3400 
Q 928 2903 1028 2700 
Q 1131 2497 1369 2497 
Q 1603 2497 1706 2700 
Q 1806 2903 1806 3400 
z
M 2547 3397 
Q 2547 2738 2241 2391 
Q 1931 2041 1369 2041 
Q 797 2041 494 2391 
Q 188 2744 188 3397 
Q 188 4047 494 4397 
Q 803 4750 1369 4750 
Q 1931 4750 2241 4397 
Q 2547 4047 2547 3397 
z
" transform="scale(0.015625)"/>
     </defs>
     <use xlink:href="#DejaVuSans-Bold-4e"/>
     <use xlink:href="#DejaVuSans-Bold-6f" x="83.691406"/>
     <use xlink:href="#DejaVuSans-Bold-72" x="152.392578"/>
     <use xlink:href="#DejaVuSans-Bold-6d" x="201.708984"/>
     <use xlink:href="#DejaVuSans-Bold-61" x="305.908203"/>
     <use xlink:href="#DejaVuSans-Bold-6c" x="373.388672"/>
     <use xlink:href="#DejaVuSans-Bold-69" x="407.666016"/>
     <use xlink:href="#DejaVuSans-Bold-7a" x="441.943359"/>
     <use xlink:href="#DejaVuSans-Bold-65" x="500.146484"/>
     <use xlink:href="#DejaVuSans-Bold-64" x="567.96875"/>
     <use xlink:href="#DejaVuSans-Bold-20" x="639.550781"/>
     <use xlink:href="#DejaVuSans-Bold-6a" x="674.365234"/>
     <use xlink:href="#DejaVuSans-Bold-65" x="708.642578"/>
     <use xlink:href="#DejaVuSans-Bold-72" x="776.464844"/>
     <use xlink:href="#DejaVuSans-Bold-6b" x="825.78125"/>
     <use xlink:href="#DejaVuSans-Bold-20" x="892.285156"/>
     <use xlink:href="#DejaVuSans-Bold-28" x="927.099609"/>
     <use xlink:href="#DejaVuSans-Bold-d7" x="972.802734"/>
     <use xlink:href="#DejaVuSans-Bold-31" x="1056.591797"/>
     <use xlink:href="#DejaVuSans-Bold-30" x="1126.171875"/>
     <use xlink:href="#DejaVuSans-Bold-b9" x="1195.751953"/>
     <use xlink:href="#DejaVuSans-Bold-2070" x="1239.550781"/>
     <use xlink:href="#DejaVuSans-Bold-29" x="1283.349609"/>
     <use xlink:href="#DejaVuSans-Bold-20" x="1329.052734"/>
     <use xlink:href="#DejaVuSans-Bold-20" x="1363.867188"/>
     <use xlink:href="#DejaVuSans-Bold-2193" x="1398.681641"/>
    </g>
   </g>
  </g>
  <g id="axes_3">
   <g id="patch_18">
    <path d="M 123.921875 564.021395 
L 467.51976 564.021395 
L 467.51976 319.077969 
L 123.921875 319.077969 
z
" style="fill: #ffffff"/>
   </g>
   <g id="matplotlib.axis_5">
    <g id="xtick_12">
     <g id="line2d_37">
      <path d="M 123.921875 564.021395 
L 123.921875 319.077969 
" clip-path="url(#p22bc3dc1f4)" style="fill: none; stroke: #edf1f5; stroke-width: 0.8; stroke-linecap: square"/>
     </g>
     <g id="line2d_38"/>
     <g id="text_42">
      <!-- 0 -->
      <g transform="translate(120.740625 575.119832) scale(0.1 -0.1)">
       <use xlink:href="#DejaVuSans-30"/>
      </g>
     </g>
    </g>
    <g id="xtick_13">
     <g id="line2d_39">
      <path d="M 181.529997 564.021395 
L 181.529997 319.077969 
" clip-path="url(#p22bc3dc1f4)" style="fill: none; stroke: #edf1f5; stroke-width: 0.8; stroke-linecap: square"/>
     </g>
     <g id="line2d_40"/>
     <g id="text_43">
      <!-- 1 -->
      <g transform="translate(178.348747 575.119832) scale(0.1 -0.1)">
       <use xlink:href="#DejaVuSans-31"/>
      </g>
     </g>
    </g>
    <g id="xtick_14">
     <g id="line2d_41">
      <path d="M 239.13812 564.021395 
L 239.13812 319.077969 
" clip-path="url(#p22bc3dc1f4)" style="fill: none; stroke: #edf1f5; stroke-width: 0.8; stroke-linecap: square"/>
     </g>
     <g id="line2d_42"/>
     <g id="text_44">
      <!-- 2 -->
      <g transform="translate(235.95687 575.119832) scale(0.1 -0.1)">
       <use xlink:href="#DejaVuSans-32"/>
      </g>
     </g>
    </g>
    <g id="xtick_15">
     <g id="line2d_43">
      <path d="M 296.746242 564.021395 
L 296.746242 319.077969 
" clip-path="url(#p22bc3dc1f4)" style="fill: none; stroke: #edf1f5; stroke-width: 0.8; stroke-linecap: square"/>
     </g>
     <g id="line2d_44"/>
     <g id="text_45">
      <!-- 3 -->
      <g transform="translate(293.564992 575.119832) scale(0.1 -0.1)">
       <use xlink:href="#DejaVuSans-33"/>
      </g>
     </g>
    </g>
    <g id="xtick_16">
     <g id="line2d_45">
      <path d="M 354.354364 564.021395 
L 354.354364 319.077969 
" clip-path="url(#p22bc3dc1f4)" style="fill: none; stroke: #edf1f5; stroke-width: 0.8; stroke-linecap: square"/>
     </g>
     <g id="line2d_46"/>
     <g id="text_46">
      <!-- 4 -->
      <g transform="translate(351.173114 575.119832) scale(0.1 -0.1)">
       <use xlink:href="#DejaVuSans-34"/>
      </g>
     </g>
    </g>
    <g id="xtick_17">
     <g id="line2d_47">
      <path d="M 411.962487 564.021395 
L 411.962487 319.077969 
" clip-path="url(#p22bc3dc1f4)" style="fill: none; stroke: #edf1f5; stroke-width: 0.8; stroke-linecap: square"/>
     </g>
     <g id="line2d_48"/>
     <g id="text_47">
      <!-- 5 -->
      <g transform="translate(408.781237 575.119832) scale(0.1 -0.1)">
       <use xlink:href="#DejaVuSans-35"/>
      </g>
     </g>
    </g>
   </g>
   <g id="matplotlib.axis_6">
    <g id="ytick_15">
     <g id="line2d_49"/>
     <g id="text_48">
      <!-- Teleoperation -->
      <g transform="translate(52.915625 343.82496) scale(0.1 -0.1)">
       <use xlink:href="#DejaVuSans-54"/>
       <use xlink:href="#DejaVuSans-65" x="44.083984"/>
       <use xlink:href="#DejaVuSans-6c" x="105.607422"/>
       <use xlink:href="#DejaVuSans-65" x="133.390625"/>
       <use xlink:href="#DejaVuSans-6f" x="194.914062"/>
       <use xlink:href="#DejaVuSans-70" x="256.095703"/>
       <use xlink:href="#DejaVuSans-65" x="319.572266"/>
       <use xlink:href="#DejaVuSans-72" x="381.095703"/>
       <use xlink:href="#DejaVuSans-61" x="422.208984"/>
       <use xlink:href="#DejaVuSans-74" x="483.488281"/>
       <use xlink:href="#DejaVuSans-69" x="522.697266"/>
       <use xlink:href="#DejaVuSans-6f" x="550.480469"/>
       <use xlink:href="#DejaVuSans-6e" x="611.662109"/>
      </g>
     </g>
    </g>
    <g id="ytick_16">
     <g id="line2d_50"/>
     <g id="text_49">
      <!-- Pos. belief -->
      <g transform="translate(69.339063 377.666274) scale(0.1 -0.1)">
       <use xlink:href="#DejaVuSans-50"/>
       <use xlink:href="#DejaVuSans-6f" x="56.677734"/>
       <use xlink:href="#DejaVuSans-73" x="117.859375"/>
       <use xlink:href="#DejaVuSans-2e" x="169.958984"/>
       <use xlink:href="#DejaVuSans-20" x="201.746094"/>
       <use xlink:href="#DejaVuSans-62" x="233.533203"/>
       <use xlink:href="#DejaVuSans-65" x="297.009766"/>
       <use xlink:href="#DejaVuSans-6c" x="358.533203"/>
       <use xlink:href="#DejaVuSans-69" x="386.316406"/>
       <use xlink:href="#DejaVuSans-65" x="414.099609"/>
       <use xlink:href="#DejaVuSans-66" x="475.623047"/>
      </g>
     </g>
    </g>
    <g id="ytick_17">
     <g id="line2d_51"/>
     <g id="text_50">
      <!-- Ori. belief -->
      <g transform="translate(71.573438 411.507587) scale(0.1 -0.1)">
       <use xlink:href="#DejaVuSans-4f"/>
       <use xlink:href="#DejaVuSans-72" x="78.710938"/>
       <use xlink:href="#DejaVuSans-69" x="119.824219"/>
       <use xlink:href="#DejaVuSans-2e" x="147.607422"/>
       <use xlink:href="#DejaVuSans-20" x="179.394531"/>
       <use xlink:href="#DejaVuSans-62" x="211.181641"/>
       <use xlink:href="#DejaVuSans-65" x="274.658203"/>
       <use xlink:href="#DejaVuSans-6c" x="336.181641"/>
       <use xlink:href="#DejaVuSans-69" x="363.964844"/>
       <use xlink:href="#DejaVuSans-65" x="391.748047"/>
       <use xlink:href="#DejaVuSans-66" x="453.271484"/>
      </g>
     </g>
    </g>
    <g id="ytick_18">
     <g id="line2d_52"/>
     <g id="text_51">
      <!-- PATH w/o adapt. trans. -->
      <g transform="translate(7.2 445.348901) scale(0.1 -0.1)">
       <use xlink:href="#DejaVuSans-50"/>
       <use xlink:href="#DejaVuSans-41" x="53.927734"/>
       <use xlink:href="#DejaVuSans-54" x="114.585938"/>
       <use xlink:href="#DejaVuSans-48" x="175.669922"/>
       <use xlink:href="#DejaVuSans-20" x="250.865234"/>
       <use xlink:href="#DejaVuSans-77" x="282.652344"/>
       <use xlink:href="#DejaVuSans-2f" x="364.439453"/>
       <use xlink:href="#DejaVuSans-6f" x="398.130859"/>
       <use xlink:href="#DejaVuSans-20" x="459.3125"/>
       <use xlink:href="#DejaVuSans-61" x="491.099609"/>
       <use xlink:href="#DejaVuSans-64" x="552.378906"/>
       <use xlink:href="#DejaVuSans-61" x="615.855469"/>
       <use xlink:href="#DejaVuSans-70" x="677.134766"/>
       <use xlink:href="#DejaVuSans-74" x="740.611328"/>
       <use xlink:href="#DejaVuSans-2e" x="779.820312"/>
       <use xlink:href="#DejaVuSans-20" x="811.607422"/>
       <use xlink:href="#DejaVuSans-74" x="843.394531"/>
       <use xlink:href="#DejaVuSans-72" x="882.603516"/>
       <use xlink:href="#DejaVuSans-61" x="923.716797"/>
       <use xlink:href="#DejaVuSans-6e" x="984.996094"/>
       <use xlink:href="#DejaVuSans-73" x="1048.375"/>
       <use xlink:href="#DejaVuSans-2e" x="1100.474609"/>
      </g>
     </g>
    </g>
    <g id="ytick_19">
     <g id="line2d_53"/>
     <g id="text_52">
      <!-- PATH w/o ori. -->
      <g transform="translate(55.128125 479.190214) scale(0.1 -0.1)">
       <use xlink:href="#DejaVuSans-50"/>
       <use xlink:href="#DejaVuSans-41" x="53.927734"/>
       <use xlink:href="#DejaVuSans-54" x="114.585938"/>
       <use xlink:href="#DejaVuSans-48" x="175.669922"/>
       <use xlink:href="#DejaVuSans-20" x="250.865234"/>
       <use xlink:href="#DejaVuSans-77" x="282.652344"/>
       <use xlink:href="#DejaVuSans-2f" x="364.439453"/>
       <use xlink:href="#DejaVuSans-6f" x="398.130859"/>
       <use xlink:href="#DejaVuSans-20" x="459.3125"/>
       <use xlink:href="#DejaVuSans-6f" x="491.099609"/>
       <use xlink:href="#DejaVuSans-72" x="552.28125"/>
       <use xlink:href="#DejaVuSans-69" x="593.394531"/>
       <use xlink:href="#DejaVuSans-2e" x="621.177734"/>
      </g>
     </g>
    </g>
    <g id="ytick_20">
     <g id="line2d_54"/>
     <g id="text_53">
      <!-- PATH w/o pos. -->
      <g transform="translate(50.459375 513.031527) scale(0.1 -0.1)">
       <use xlink:href="#DejaVuSans-50"/>
       <use xlink:href="#DejaVuSans-41" x="53.927734"/>
       <use xlink:href="#DejaVuSans-54" x="114.585938"/>
       <use xlink:href="#DejaVuSans-48" x="175.669922"/>
       <use xlink:href="#DejaVuSans-20" x="250.865234"/>
       <use xlink:href="#DejaVuSans-77" x="282.652344"/>
       <use xlink:href="#DejaVuSans-2f" x="364.439453"/>
       <use xlink:href="#DejaVuSans-6f" x="398.130859"/>
       <use xlink:href="#DejaVuSans-20" x="459.3125"/>
       <use xlink:href="#DejaVuSans-70" x="491.099609"/>
       <use xlink:href="#DejaVuSans-6f" x="554.576172"/>
       <use xlink:href="#DejaVuSans-73" x="615.757812"/>
       <use xlink:href="#DejaVuSans-2e" x="667.857422"/>
      </g>
     </g>
    </g>
    <g id="ytick_21">
     <g id="line2d_55"/>
     <g id="text_54">
      <!-- PATH -->
      <g transform="translate(95.335938 546.872841) scale(0.1 -0.1)">
       <use xlink:href="#DejaVuSans-50"/>
       <use xlink:href="#DejaVuSans-41" x="53.927734"/>
       <use xlink:href="#DejaVuSans-54" x="114.585938"/>
       <use xlink:href="#DejaVuSans-48" x="175.669922"/>
      </g>
     </g>
    </g>
   </g>
   <g id="patch_19">
    <path d="M 123.921875 330.211761 
L 352.626121 330.211761 
L 352.626121 349.839723 
L 123.921875 349.839723 
z
" clip-path="url(#p22bc3dc1f4)" style="fill: #9baabd"/>
   </g>
   <g id="patch_20">
    <path d="M 123.921875 364.053074 
L 371.06072 364.053074 
L 371.06072 383.681036 
L 123.921875 383.681036 
z
" clip-path="url(#p22bc3dc1f4)" style="fill: #9baabd"/>
   </g>
   <g id="patch_21">
    <path d="M 123.921875 397.894388 
L 401.016944 397.894388 
L 401.016944 417.522349 
L 123.921875 417.522349 
z
" clip-path="url(#p22bc3dc1f4)" style="fill: #9baabd"/>
   </g>
   <g id="patch_22">
    <path d="M 123.921875 431.735701 
L 338.800171 431.735701 
L 338.800171 451.363663 
L 123.921875 451.363663 
z
" clip-path="url(#p22bc3dc1f4)" style="fill: #9baabd"/>
   </g>
   <g id="patch_23">
    <path d="M 123.921875 465.577014 
L 376.821532 465.577014 
L 376.821532 485.204976 
L 123.921875 485.204976 
z
" clip-path="url(#p22bc3dc1f4)" style="fill: #9baabd"/>
   </g>
   <g id="patch_24">
    <path d="M 123.921875 499.418328 
L 349.169633 499.418328 
L 349.169633 519.04629 
L 123.921875 519.04629 
z
" clip-path="url(#p22bc3dc1f4)" style="fill: #9baabd"/>
   </g>
   <g id="patch_25">
    <path d="M 123.921875 533.259641 
L 300.778811 533.259641 
L 300.778811 552.887603 
L 123.921875 552.887603 
z
" clip-path="url(#p22bc3dc1f4)" style="fill: #169b69"/>
   </g>
   <g id="text_55">
    <!-- 3.970 -->
    <g style="fill: #334155" transform="translate(359.553497 342.785117) scale(0.1 -0.1)">
     <use xlink:href="#DejaVuSans-33"/>
     <use xlink:href="#DejaVuSans-2e" x="63.623047"/>
     <use xlink:href="#DejaVuSans-39" x="95.410156"/>
     <use xlink:href="#DejaVuSans-37" x="159.033203"/>
     <use xlink:href="#DejaVuSans-30" x="222.65625"/>
    </g>
   </g>
   <g id="text_56">
    <!-- 4.290 -->
    <g style="fill: #334155" transform="translate(377.988097 376.62643) scale(0.1 -0.1)">
     <use xlink:href="#DejaVuSans-34"/>
     <use xlink:href="#DejaVuSans-2e" x="63.623047"/>
     <use xlink:href="#DejaVuSans-32" x="95.410156"/>
     <use xlink:href="#DejaVuSans-39" x="159.033203"/>
     <use xlink:href="#DejaVuSans-30" x="222.65625"/>
    </g>
   </g>
   <g id="text_57">
    <!-- 4.810 -->
    <g style="fill: #334155" transform="translate(407.94432 410.467743) scale(0.1 -0.1)">
     <use xlink:href="#DejaVuSans-34"/>
     <use xlink:href="#DejaVuSans-2e" x="63.623047"/>
     <use xlink:href="#DejaVuSans-38" x="95.410156"/>
     <use xlink:href="#DejaVuSans-31" x="159.033203"/>
     <use xlink:href="#DejaVuSans-30" x="222.65625"/>
    </g>
   </g>
   <g id="text_58">
    <!-- 3.730 -->
    <g style="fill: #334155" transform="translate(345.727548 444.309057) scale(0.1 -0.1)">
     <use xlink:href="#DejaVuSans-33"/>
     <use xlink:href="#DejaVuSans-2e" x="63.623047"/>
     <use xlink:href="#DejaVuSans-37" x="95.410156"/>
     <use xlink:href="#DejaVuSans-33" x="159.033203"/>
     <use xlink:href="#DejaVuSans-30" x="222.65625"/>
    </g>
   </g>
   <g id="text_59">
    <!-- 4.390 -->
    <g style="fill: #334155" transform="translate(383.748909 478.15037) scale(0.1 -0.1)">
     <use xlink:href="#DejaVuSans-34"/>
     <use xlink:href="#DejaVuSans-2e" x="63.623047"/>
     <use xlink:href="#DejaVuSans-33" x="95.410156"/>
     <use xlink:href="#DejaVuSans-39" x="159.033203"/>
     <use xlink:href="#DejaVuSans-30" x="222.65625"/>
    </g>
   </g>
   <g id="text_60">
    <!-- 3.910 -->
    <g style="fill: #334155" transform="translate(356.09701 511.991684) scale(0.1 -0.1)">
     <use xlink:href="#DejaVuSans-33"/>
     <use xlink:href="#DejaVuSans-2e" x="63.623047"/>
     <use xlink:href="#DejaVuSans-39" x="95.410156"/>
     <use xlink:href="#DejaVuSans-31" x="159.033203"/>
     <use xlink:href="#DejaVuSans-30" x="222.65625"/>
    </g>
   </g>
   <g id="text_61">
    <!-- 3.070 -->
    <g style="fill: #126947" transform="translate(307.706187 545.832997) scale(0.1 -0.1)">
     <defs>
      <path id="DejaVuSans-Bold-33" d="M 2981 2516 
Q 3453 2394 3698 2092 
Q 3944 1791 3944 1325 
Q 3944 631 3412 270 
Q 2881 -91 1863 -91 
Q 1503 -91 1142 -33 
Q 781 25 428 141 
L 428 1069 
Q 766 900 1098 814 
Q 1431 728 1753 728 
Q 2231 728 2486 893 
Q 2741 1059 2741 1369 
Q 2741 1688 2480 1852 
Q 2219 2016 1709 2016 
L 1228 2016 
L 1228 2791 
L 1734 2791 
Q 2188 2791 2409 2933 
Q 2631 3075 2631 3366 
Q 2631 3634 2415 3781 
Q 2200 3928 1806 3928 
Q 1516 3928 1219 3862 
Q 922 3797 628 3669 
L 628 4550 
Q 984 4650 1334 4700 
Q 1684 4750 2022 4750 
Q 2931 4750 3382 4451 
Q 3834 4153 3834 3553 
Q 3834 3144 3618 2883 
Q 3403 2622 2981 2516 
z
" transform="scale(0.015625)"/>
      <path id="DejaVuSans-Bold-37" d="M 428 4666 
L 3944 4666 
L 3944 3988 
L 2125 0 
L 953 0 
L 2675 3781 
L 428 3781 
L 428 4666 
z
" transform="scale(0.015625)"/>
     </defs>
     <use xlink:href="#DejaVuSans-Bold-33"/>
     <use xlink:href="#DejaVuSans-Bold-2e" x="69.580078"/>
     <use xlink:href="#DejaVuSans-Bold-30" x="107.568359"/>
     <use xlink:href="#DejaVuSans-Bold-37" x="177.148438"/>
     <use xlink:href="#DejaVuSans-Bold-30" x="246.728516"/>
    </g>
   </g>
   <g id="text_62">
    <!-- Translation path (m)  ↓ -->
    <g transform="translate(123.921875 305.077969) scale(0.13 -0.13)">
     <defs>
      <path id="DejaVuSans-Bold-54" d="M 31 4666 
L 4331 4666 
L 4331 3756 
L 2784 3756 
L 2784 0 
L 1581 0 
L 1581 3756 
L 31 3756 
L 31 4666 
z
" transform="scale(0.015625)"/>
      <path id="DejaVuSans-Bold-68" d="M 4056 2131 
L 4056 0 
L 2931 0 
L 2931 347 
L 2931 1625 
Q 2931 2084 2911 2256 
Q 2891 2428 2841 2509 
Q 2775 2619 2662 2680 
Q 2550 2741 2406 2741 
Q 2056 2741 1856 2470 
Q 1656 2200 1656 1722 
L 1656 0 
L 538 0 
L 538 4863 
L 1656 4863 
L 1656 2988 
Q 1909 3294 2193 3439 
Q 2478 3584 2822 3584 
Q 3428 3584 3742 3212 
Q 4056 2841 4056 2131 
z
" transform="scale(0.015625)"/>
     </defs>
     <use xlink:href="#DejaVuSans-Bold-54"/>
     <use xlink:href="#DejaVuSans-Bold-72" x="57.212891"/>
     <use xlink:href="#DejaVuSans-Bold-61" x="106.529297"/>
     <use xlink:href="#DejaVuSans-Bold-6e" x="174.009766"/>
     <use xlink:href="#DejaVuSans-Bold-73" x="245.201172"/>
     <use xlink:href="#DejaVuSans-Bold-6c" x="304.722656"/>
     <use xlink:href="#DejaVuSans-Bold-61" x="339"/>
     <use xlink:href="#DejaVuSans-Bold-74" x="406.480469"/>
     <use xlink:href="#DejaVuSans-Bold-69" x="454.283203"/>
     <use xlink:href="#DejaVuSans-Bold-6f" x="488.560547"/>
     <use xlink:href="#DejaVuSans-Bold-6e" x="557.261719"/>
     <use xlink:href="#DejaVuSans-Bold-20" x="628.453125"/>
     <use xlink:href="#DejaVuSans-Bold-70" x="663.267578"/>
     <use xlink:href="#DejaVuSans-Bold-61" x="734.849609"/>
     <use xlink:href="#DejaVuSans-Bold-74" x="802.330078"/>
     <use xlink:href="#DejaVuSans-Bold-68" x="850.132812"/>
     <use xlink:href="#DejaVuSans-Bold-20" x="921.324219"/>
     <use xlink:href="#DejaVuSans-Bold-28" x="956.138672"/>
     <use xlink:href="#DejaVuSans-Bold-6d" x="1001.841797"/>
     <use xlink:href="#DejaVuSans-Bold-29" x="1106.041016"/>
     <use xlink:href="#DejaVuSans-Bold-20" x="1151.744141"/>
     <use xlink:href="#DejaVuSans-Bold-20" x="1186.558594"/>
     <use xlink:href="#DejaVuSans-Bold-2193" x="1221.373047"/>
    </g>
   </g>
  </g>
  <g id="axes_4">
   <g id="patch_26">
    <path d="M 593.601635 564.021395 
L 937.19952 564.021395 
L 937.19952 319.077969 
L 593.601635 319.077969 
z
" style="fill: #ffffff"/>
   </g>
   <g id="matplotlib.axis_7">
    <g id="xtick_18">
     <g id="line2d_56">
      <path d="M 593.601635 564.021395 
L 593.601635 319.077969 
" clip-path="url(#p7e51467628)" style="fill: none; stroke: #edf1f5; stroke-width: 0.8; stroke-linecap: square"/>
     </g>
     <g id="line2d_57"/>
     <g id="text_63">
      <!-- 0 -->
      <g transform="translate(590.420385 575.119832) scale(0.1 -0.1)">
       <use xlink:href="#DejaVuSans-30"/>
      </g>
     </g>
    </g>
    <g id="xtick_19">
     <g id="line2d_58">
      <path d="M 664.433708 564.021395 
L 664.433708 319.077969 
" clip-path="url(#p7e51467628)" style="fill: none; stroke: #edf1f5; stroke-width: 0.8; stroke-linecap: square"/>
     </g>
     <g id="line2d_59"/>
     <g id="text_64">
      <!-- 10 -->
      <g transform="translate(658.071208 575.119832) scale(0.1 -0.1)">
       <use xlink:href="#DejaVuSans-31"/>
       <use xlink:href="#DejaVuSans-30" x="63.623047"/>
      </g>
     </g>
    </g>
    <g id="xtick_20">
     <g id="line2d_60">
      <path d="M 735.26578 564.021395 
L 735.26578 319.077969 
" clip-path="url(#p7e51467628)" style="fill: none; stroke: #edf1f5; stroke-width: 0.8; stroke-linecap: square"/>
     </g>
     <g id="line2d_61"/>
     <g id="text_65">
      <!-- 20 -->
      <g transform="translate(728.90328 575.119832) scale(0.1 -0.1)">
       <use xlink:href="#DejaVuSans-32"/>
       <use xlink:href="#DejaVuSans-30" x="63.623047"/>
      </g>
     </g>
    </g>
    <g id="xtick_21">
     <g id="line2d_62">
      <path d="M 806.097853 564.021395 
L 806.097853 319.077969 
" clip-path="url(#p7e51467628)" style="fill: none; stroke: #edf1f5; stroke-width: 0.8; stroke-linecap: square"/>
     </g>
     <g id="line2d_63"/>
     <g id="text_66">
      <!-- 30 -->
      <g transform="translate(799.735353 575.119832) scale(0.1 -0.1)">
       <use xlink:href="#DejaVuSans-33"/>
       <use xlink:href="#DejaVuSans-30" x="63.623047"/>
      </g>
     </g>
    </g>
    <g id="xtick_22">
     <g id="line2d_64">
      <path d="M 876.929926 564.021395 
L 876.929926 319.077969 
" clip-path="url(#p7e51467628)" style="fill: none; stroke: #edf1f5; stroke-width: 0.8; stroke-linecap: square"/>
     </g>
     <g id="line2d_65"/>
     <g id="text_67">
      <!-- 40 -->
      <g transform="translate(870.567426 575.119832) scale(0.1 -0.1)">
       <use xlink:href="#DejaVuSans-34"/>
       <use xlink:href="#DejaVuSans-30" x="63.623047"/>
      </g>
     </g>
    </g>
   </g>
   <g id="matplotlib.axis_8">
    <g id="ytick_22">
     <g id="line2d_66"/>
     <g id="text_68">
      <!-- Teleoperation -->
      <g transform="translate(522.595385 343.82496) scale(0.1 -0.1)">
       <use xlink:href="#DejaVuSans-54"/>
       <use xlink:href="#DejaVuSans-65" x="44.083984"/>
       <use xlink:href="#DejaVuSans-6c" x="105.607422"/>
       <use xlink:href="#DejaVuSans-65" x="133.390625"/>
       <use xlink:href="#DejaVuSans-6f" x="194.914062"/>
       <use xlink:href="#DejaVuSans-70" x="256.095703"/>
       <use xlink:href="#DejaVuSans-65" x="319.572266"/>
       <use xlink:href="#DejaVuSans-72" x="381.095703"/>
       <use xlink:href="#DejaVuSans-61" x="422.208984"/>
       <use xlink:href="#DejaVuSans-74" x="483.488281"/>
       <use xlink:href="#DejaVuSans-69" x="522.697266"/>
       <use xlink:href="#DejaVuSans-6f" x="550.480469"/>
       <use xlink:href="#DejaVuSans-6e" x="611.662109"/>
      </g>
     </g>
    </g>
    <g id="ytick_23">
     <g id="line2d_67"/>
     <g id="text_69">
      <!-- Pos. belief -->
      <g transform="translate(539.018823 377.666274) scale(0.1 -0.1)">
       <use xlink:href="#DejaVuSans-50"/>
       <use xlink:href="#DejaVuSans-6f" x="56.677734"/>
       <use xlink:href="#DejaVuSans-73" x="117.859375"/>
       <use xlink:href="#DejaVuSans-2e" x="169.958984"/>
       <use xlink:href="#DejaVuSans-20" x="201.746094"/>
       <use xlink:href="#DejaVuSans-62" x="233.533203"/>
       <use xlink:href="#DejaVuSans-65" x="297.009766"/>
       <use xlink:href="#DejaVuSans-6c" x="358.533203"/>
       <use xlink:href="#DejaVuSans-69" x="386.316406"/>
       <use xlink:href="#DejaVuSans-65" x="414.099609"/>
       <use xlink:href="#DejaVuSans-66" x="475.623047"/>
      </g>
     </g>
    </g>
    <g id="ytick_24">
     <g id="line2d_68"/>
     <g id="text_70">
      <!-- Ori. belief -->
      <g transform="translate(541.253198 411.507587) scale(0.1 -0.1)">
       <use xlink:href="#DejaVuSans-4f"/>
       <use xlink:href="#DejaVuSans-72" x="78.710938"/>
       <use xlink:href="#DejaVuSans-69" x="119.824219"/>
       <use xlink:href="#DejaVuSans-2e" x="147.607422"/>
       <use xlink:href="#DejaVuSans-20" x="179.394531"/>
       <use xlink:href="#DejaVuSans-62" x="211.181641"/>
       <use xlink:href="#DejaVuSans-65" x="274.658203"/>
       <use xlink:href="#DejaVuSans-6c" x="336.181641"/>
       <use xlink:href="#DejaVuSans-69" x="363.964844"/>
       <use xlink:href="#DejaVuSans-65" x="391.748047"/>
       <use xlink:href="#DejaVuSans-66" x="453.271484"/>
      </g>
     </g>
    </g>
    <g id="ytick_25">
     <g id="line2d_69"/>
     <g id="text_71">
      <!-- PATH w/o adapt. trans. -->
      <g transform="translate(476.87976 445.348901) scale(0.1 -0.1)">
       <use xlink:href="#DejaVuSans-50"/>
       <use xlink:href="#DejaVuSans-41" x="53.927734"/>
       <use xlink:href="#DejaVuSans-54" x="114.585938"/>
       <use xlink:href="#DejaVuSans-48" x="175.669922"/>
       <use xlink:href="#DejaVuSans-20" x="250.865234"/>
       <use xlink:href="#DejaVuSans-77" x="282.652344"/>
       <use xlink:href="#DejaVuSans-2f" x="364.439453"/>
       <use xlink:href="#DejaVuSans-6f" x="398.130859"/>
       <use xlink:href="#DejaVuSans-20" x="459.3125"/>
       <use xlink:href="#DejaVuSans-61" x="491.099609"/>
       <use xlink:href="#DejaVuSans-64" x="552.378906"/>
       <use xlink:href="#DejaVuSans-61" x="615.855469"/>
       <use xlink:href="#DejaVuSans-70" x="677.134766"/>
       <use xlink:href="#DejaVuSans-74" x="740.611328"/>
       <use xlink:href="#DejaVuSans-2e" x="779.820312"/>
       <use xlink:href="#DejaVuSans-20" x="811.607422"/>
       <use xlink:href="#DejaVuSans-74" x="843.394531"/>
       <use xlink:href="#DejaVuSans-72" x="882.603516"/>
       <use xlink:href="#DejaVuSans-61" x="923.716797"/>
       <use xlink:href="#DejaVuSans-6e" x="984.996094"/>
       <use xlink:href="#DejaVuSans-73" x="1048.375"/>
       <use xlink:href="#DejaVuSans-2e" x="1100.474609"/>
      </g>
     </g>
    </g>
    <g id="ytick_26">
     <g id="line2d_70"/>
     <g id="text_72">
      <!-- PATH w/o ori. -->
      <g transform="translate(524.807885 479.190214) scale(0.1 -0.1)">
       <use xlink:href="#DejaVuSans-50"/>
       <use xlink:href="#DejaVuSans-41" x="53.927734"/>
       <use xlink:href="#DejaVuSans-54" x="114.585938"/>
       <use xlink:href="#DejaVuSans-48" x="175.669922"/>
       <use xlink:href="#DejaVuSans-20" x="250.865234"/>
       <use xlink:href="#DejaVuSans-77" x="282.652344"/>
       <use xlink:href="#DejaVuSans-2f" x="364.439453"/>
       <use xlink:href="#DejaVuSans-6f" x="398.130859"/>
       <use xlink:href="#DejaVuSans-20" x="459.3125"/>
       <use xlink:href="#DejaVuSans-6f" x="491.099609"/>
       <use xlink:href="#DejaVuSans-72" x="552.28125"/>
       <use xlink:href="#DejaVuSans-69" x="593.394531"/>
       <use xlink:href="#DejaVuSans-2e" x="621.177734"/>
      </g>
     </g>
    </g>
    <g id="ytick_27">
     <g id="line2d_71"/>
     <g id="text_73">
      <!-- PATH w/o pos. -->
      <g transform="translate(520.139135 513.031527) scale(0.1 -0.1)">
       <use xlink:href="#DejaVuSans-50"/>
       <use xlink:href="#DejaVuSans-41" x="53.927734"/>
       <use xlink:href="#DejaVuSans-54" x="114.585938"/>
       <use xlink:href="#DejaVuSans-48" x="175.669922"/>
       <use xlink:href="#DejaVuSans-20" x="250.865234"/>
       <use xlink:href="#DejaVuSans-77" x="282.652344"/>
       <use xlink:href="#DejaVuSans-2f" x="364.439453"/>
       <use xlink:href="#DejaVuSans-6f" x="398.130859"/>
       <use xlink:href="#DejaVuSans-20" x="459.3125"/>
       <use xlink:href="#DejaVuSans-70" x="491.099609"/>
       <use xlink:href="#DejaVuSans-6f" x="554.576172"/>
       <use xlink:href="#DejaVuSans-73" x="615.757812"/>
       <use xlink:href="#DejaVuSans-2e" x="667.857422"/>
      </g>
     </g>
    </g>
    <g id="ytick_28">
     <g id="line2d_72"/>
     <g id="text_74">
      <!-- PATH -->
      <g transform="translate(565.015698 546.872841) scale(0.1 -0.1)">
       <use xlink:href="#DejaVuSans-50"/>
       <use xlink:href="#DejaVuSans-41" x="53.927734"/>
       <use xlink:href="#DejaVuSans-54" x="114.585938"/>
       <use xlink:href="#DejaVuSans-48" x="175.669922"/>
      </g>
     </g>
    </g>
   </g>
   <g id="patch_27">
    <path d="M 593.601635 330.211761 
L 859.151076 330.211761 
L 859.151076 349.839723 
L 593.601635 349.839723 
z
" clip-path="url(#p7e51467628)" style="fill: #9baabd"/>
   </g>
   <g id="patch_28">
    <path d="M 593.601635 364.053074 
L 857.380274 364.053074 
L 857.380274 383.681036 
L 593.601635 383.681036 
z
" clip-path="url(#p7e51467628)" style="fill: #9baabd"/>
   </g>
   <g id="patch_29">
    <path d="M 593.601635 397.894388 
L 870.696704 397.894388 
L 870.696704 417.522349 
L 593.601635 417.522349 
z
" clip-path="url(#p7e51467628)" style="fill: #9baabd"/>
   </g>
   <g id="patch_30">
    <path d="M 593.601635 431.735701 
L 814.88103 431.735701 
L 814.88103 451.363663 
L 593.601635 451.363663 
z
" clip-path="url(#p7e51467628)" style="fill: #9baabd"/>
   </g>
   <g id="patch_31">
    <path d="M 593.601635 465.577014 
L 850.438731 465.577014 
L 850.438731 485.204976 
L 593.601635 485.204976 
z
" clip-path="url(#p7e51467628)" style="fill: #9baabd"/>
   </g>
   <g id="patch_32">
    <path d="M 593.601635 499.418328 
L 832.65988 499.418328 
L 832.65988 519.04629 
L 593.601635 519.04629 
z
" clip-path="url(#p7e51467628)" style="fill: #9baabd"/>
   </g>
   <g id="patch_33">
    <path d="M 593.601635 533.259641 
L 781.37746 533.259641 
L 781.37746 552.887603 
L 593.601635 552.887603 
z
" clip-path="url(#p7e51467628)" style="fill: #169b69"/>
   </g>
   <g id="text_75">
    <!-- 37.490 -->
    <g style="fill: #334155" transform="translate(866.078452 342.785117) scale(0.1 -0.1)">
     <use xlink:href="#DejaVuSans-33"/>
     <use xlink:href="#DejaVuSans-37" x="63.623047"/>
     <use xlink:href="#DejaVuSans-2e" x="127.246094"/>
     <use xlink:href="#DejaVuSans-34" x="159.033203"/>
     <use xlink:href="#DejaVuSans-39" x="222.65625"/>
     <use xlink:href="#DejaVuSans-30" x="286.279297"/>
    </g>
   </g>
   <g id="text_76">
    <!-- 37.240 -->
    <g style="fill: #334155" transform="translate(864.307651 376.62643) scale(0.1 -0.1)">
     <use xlink:href="#DejaVuSans-33"/>
     <use xlink:href="#DejaVuSans-37" x="63.623047"/>
     <use xlink:href="#DejaVuSans-2e" x="127.246094"/>
     <use xlink:href="#DejaVuSans-32" x="159.033203"/>
     <use xlink:href="#DejaVuSans-34" x="222.65625"/>
     <use xlink:href="#DejaVuSans-30" x="286.279297"/>
    </g>
   </g>
   <g id="text_77">
    <!-- 39.120 -->
    <g style="fill: #334155" transform="translate(877.62408 410.467743) scale(0.1 -0.1)">
     <use xlink:href="#DejaVuSans-33"/>
     <use xlink:href="#DejaVuSans-39" x="63.623047"/>
     <use xlink:href="#DejaVuSans-2e" x="127.246094"/>
     <use xlink:href="#DejaVuSans-31" x="159.033203"/>
     <use xlink:href="#DejaVuSans-32" x="222.65625"/>
     <use xlink:href="#DejaVuSans-30" x="286.279297"/>
    </g>
   </g>
   <g id="text_78">
    <!-- 31.240 -->
    <g style="fill: #334155" transform="translate(821.808407 444.309057) scale(0.1 -0.1)">
     <use xlink:href="#DejaVuSans-33"/>
     <use xlink:href="#DejaVuSans-31" x="63.623047"/>
     <use xlink:href="#DejaVuSans-2e" x="127.246094"/>
     <use xlink:href="#DejaVuSans-32" x="159.033203"/>
     <use xlink:href="#DejaVuSans-34" x="222.65625"/>
     <use xlink:href="#DejaVuSans-30" x="286.279297"/>
    </g>
   </g>
   <g id="text_79">
    <!-- 36.260 -->
    <g style="fill: #334155" transform="translate(857.366107 478.15037) scale(0.1 -0.1)">
     <use xlink:href="#DejaVuSans-33"/>
     <use xlink:href="#DejaVuSans-36" x="63.623047"/>
     <use xlink:href="#DejaVuSans-2e" x="127.246094"/>
     <use xlink:href="#DejaVuSans-32" x="159.033203"/>
     <use xlink:href="#DejaVuSans-36" x="222.65625"/>
     <use xlink:href="#DejaVuSans-30" x="286.279297"/>
    </g>
   </g>
   <g id="text_80">
    <!-- 33.750 -->
    <g style="fill: #334155" transform="translate(839.587257 511.991684) scale(0.1 -0.1)">
     <use xlink:href="#DejaVuSans-33"/>
     <use xlink:href="#DejaVuSans-33" x="63.623047"/>
     <use xlink:href="#DejaVuSans-2e" x="127.246094"/>
     <use xlink:href="#DejaVuSans-37" x="159.033203"/>
     <use xlink:href="#DejaVuSans-35" x="222.65625"/>
     <use xlink:href="#DejaVuSans-30" x="286.279297"/>
    </g>
   </g>
   <g id="text_81">
    <!-- 26.510 -->
    <g style="fill: #126947" transform="translate(788.304837 545.832997) scale(0.1 -0.1)">
     <use xlink:href="#DejaVuSans-Bold-32"/>
     <use xlink:href="#DejaVuSans-Bold-36" x="69.580078"/>
     <use xlink:href="#DejaVuSans-Bold-2e" x="139.160156"/>
     <use xlink:href="#DejaVuSans-Bold-35" x="177.148438"/>
     <use xlink:href="#DejaVuSans-Bold-31" x="246.728516"/>
     <use xlink:href="#DejaVuSans-Bold-30" x="316.308594"/>
    </g>
   </g>
   <g id="text_82">
    <!-- Rotation path (rad)  ↓ -->
    <g transform="translate(593.601635 305.077969) scale(0.13 -0.13)">
     <defs>
      <path id="DejaVuSans-Bold-52" d="M 2297 2597 
Q 2675 2597 2839 2737 
Q 3003 2878 3003 3200 
Q 3003 3519 2839 3656 
Q 2675 3794 2297 3794 
L 1791 3794 
L 1791 2597 
L 2297 2597 
z
M 1791 1766 
L 1791 0 
L 588 0 
L 588 4666 
L 2425 4666 
Q 3347 4666 3776 4356 
Q 4206 4047 4206 3378 
Q 4206 2916 3982 2619 
Q 3759 2322 3309 2181 
Q 3556 2125 3751 1926 
Q 3947 1728 4147 1325 
L 4800 0 
L 3519 0 
L 2950 1159 
Q 2778 1509 2601 1637 
Q 2425 1766 2131 1766 
L 1791 1766 
z
" transform="scale(0.015625)"/>
     </defs>
     <use xlink:href="#DejaVuSans-Bold-52"/>
     <use xlink:href="#DejaVuSans-Bold-6f" x="77.001953"/>
     <use xlink:href="#DejaVuSans-Bold-74" x="145.703125"/>
     <use xlink:href="#DejaVuSans-Bold-61" x="193.505859"/>
     <use xlink:href="#DejaVuSans-Bold-74" x="260.986328"/>
     <use xlink:href="#DejaVuSans-Bold-69" x="308.789062"/>
     <use xlink:href="#DejaVuSans-Bold-6f" x="343.066406"/>
     <use xlink:href="#DejaVuSans-Bold-6e" x="411.767578"/>
     <use xlink:href="#DejaVuSans-Bold-20" x="482.958984"/>
     <use xlink:href="#DejaVuSans-Bold-70" x="517.773438"/>
     <use xlink:href="#DejaVuSans-Bold-61" x="589.355469"/>
     <use xlink:href="#DejaVuSans-Bold-74" x="656.835938"/>
     <use xlink:href="#DejaVuSans-Bold-68" x="704.638672"/>
     <use xlink:href="#DejaVuSans-Bold-20" x="775.830078"/>
     <use xlink:href="#DejaVuSans-Bold-28" x="810.644531"/>
     <use xlink:href="#DejaVuSans-Bold-72" x="856.347656"/>
     <use xlink:href="#DejaVuSans-Bold-61" x="905.664062"/>
     <use xlink:href="#DejaVuSans-Bold-64" x="973.144531"/>
     <use xlink:href="#DejaVuSans-Bold-29" x="1044.726562"/>
     <use xlink:href="#DejaVuSans-Bold-20" x="1090.429688"/>
     <use xlink:href="#DejaVuSans-Bold-20" x="1125.244141"/>
     <use xlink:href="#DejaVuSans-Bold-2193" x="1160.058594"/>
    </g>
   </g>
  </g>
 </g>
 <defs>
  <clipPath id="pc8cbf12369">
   <rect x="123.921875" y="31.077969" width="343.597885" height="244.943426"/>
  </clipPath>
  <clipPath id="pe72c23d908">
   <rect x="593.601635" y="31.077969" width="343.597885" height="244.943426"/>
  </clipPath>
  <clipPath id="p22bc3dc1f4">
   <rect x="123.921875" y="319.077969" width="343.597885" height="244.943426"/>
  </clipPath>
  <clipPath id="p7e51467628">
   <rect x="593.601635" y="319.077969" width="343.597885" height="244.943426"/>
  </clipPath>
 </defs>
</svg>
